<svg width="300" height="300" viewBox="0 0 300 300" fill="none" xmlns="http://www.w3.org/2000/svg">
<path d="M155.872 29.424C152.495 27.8292 148.74 27.6492 146.353 28.0128C144.116 28.353 140.879 29.2062 138.157 31.3392C136.466 32.664 135.206 34.314 134.414 36.2436C133.476 38.529 133.19 41.2236 133.564 44.253C133.621 44.7072 133.853 45.1104 134.218 45.3876C134.586 45.666 135.039 45.7812 135.495 45.7122L141.358 44.82C142.186 44.694 142.802 43.9686 142.794 43.1328C142.774 41.2548 143.395 37.9932 147.77 37.2498C151.106 36.6852 152.851 38.8938 153.448 39.8706C154.419 41.4594 154.544 43.5 153.784 45.3288C152.615 48.1386 149.804 48.969 148.234 49.2138C146.427 49.4952 145.18 51.1866 145.453 52.9836L146.413 59.2926C146.554 60.2142 147.417 60.8496 148.338 60.7092L154.051 59.8398C154.972 59.6994 155.608 58.836 155.467 57.915L155.266 56.5896C155.261 56.5578 155.276 56.5272 155.305 56.5122C156.53 55.8612 158.872 54.3828 160.789 51.7926C163.237 48.4866 164.137 44.5626 163.462 40.131C162.498 33.7884 158.803 30.8076 155.872 29.424Z" fill="#EBEBEB"/>
<path d="M151.721 61.8198L151.221 61.896C148.832 62.2596 147.184 64.4988 147.548 66.888C147.911 69.2772 150.151 70.9248 152.54 70.5612L153.04 70.485C155.429 70.1214 157.076 67.8822 156.713 65.493C156.349 63.1038 154.11 61.4562 151.721 61.8198Z" fill="#EBEBEB"/>
<path d="M38.2026 131.269C36.5058 129.147 34.11 127.829 32.4336 127.303C30.864 126.81 28.476 126.332 26.0148 126.856C24.486 127.181 23.136 127.856 22.0014 128.864C20.6574 130.057 19.6092 131.726 18.885 133.825C18.7764 134.14 18.7992 134.477 18.9498 134.776C19.101 135.075 19.3602 135.295 19.6806 135.396L23.7966 136.688C24.3774 136.871 25.0128 136.594 25.2744 136.045C25.8618 134.812 27.3102 132.879 30.4074 133.793C32.7672 134.491 33.2016 136.492 33.279 137.321C33.405 138.67 32.8344 140.043 31.7526 140.995C30.0906 142.457 27.9888 142.1 26.8836 141.758C25.6128 141.365 24.2574 142.071 23.8614 143.333L22.4712 147.762C22.2684 148.409 22.629 149.1 23.2758 149.303L27.2862 150.562C27.933 150.765 28.6242 150.404 28.8276 149.758L29.1198 148.827C29.127 148.805 29.1468 148.79 29.1708 148.789C30.1794 148.756 32.1822 148.538 34.2636 147.459C36.9204 146.081 38.7624 143.805 39.7392 140.694C41.136 136.24 39.6744 133.111 38.2026 131.269Z" fill="#EBEBEB"/>
<path d="M25.1304 151.109L24.7794 150.999C23.1018 150.472 21.309 151.409 20.7828 153.086C20.2566 154.763 21.1926 156.556 22.8696 157.082L23.2206 157.193C24.8976 157.719 26.691 156.783 27.2172 155.106C27.744 153.429 26.8074 151.636 25.1304 151.109Z" fill="#EBEBEB"/>
<path d="M216.029 275.028C230.632 274.394 249.157 269.73 260.485 260.201C244.849 260.606 229.036 265.88 216.029 275.028Z" fill="#EBEBEB"/>
<path d="M226.188 257.757C240.791 257.123 259.315 252.46 270.644 242.931C255.008 243.336 239.195 248.609 226.188 257.757Z" fill="#EBEBEB"/>
<path d="M237.109 241.307C251.712 240.673 270.236 236.009 281.566 226.481C265.93 226.885 250.117 232.159 237.109 241.307Z" fill="#EBEBEB"/>
<path d="M249.296 224.337C263.823 221.916 281.729 215.054 291.778 204.296C276.186 206.618 261.076 213.746 249.296 224.337Z" fill="#EBEBEB"/>
<path d="M260.009 211.817C272.908 204.435 287.282 191.841 292.634 178.547C278.681 186.221 267.077 198.055 260.009 211.817Z" fill="#EBEBEB"/>
<path d="M254.816 217.736C258.788 203.249 260.022 183.773 254.193 169.961C249.669 185.395 249.89 202.388 254.816 217.736Z" fill="#EBEBEB"/>
<path d="M244.483 231.578C247.298 216.212 246.797 195.875 239.443 181.975C236.139 198.368 237.931 216.011 244.483 231.578Z" fill="#EBEBEB"/>
<path d="M232.168 248.555C234.983 233.189 234.482 212.852 227.129 198.952C223.825 215.346 225.617 232.989 232.168 248.555Z" fill="#EBEBEB"/>
<path d="M219.041 270.065C221.857 254.699 221.356 234.362 214.002 220.462C210.698 236.856 212.49 254.499 219.041 270.065Z" fill="#EBEBEB"/>
<path d="M214.039 278.009C211.924 281.915 210.266 285.105 209.17 287.333C208.639 288.415 208.218 289.272 207.909 289.901C207.782 290.171 207.679 290.393 207.594 290.574C207.526 290.727 207.495 290.808 207.503 290.813C207.512 290.817 207.56 290.745 207.644 290.6C207.743 290.426 207.862 290.212 208.009 289.952C208.34 289.335 208.791 288.494 209.361 287.433C210.516 285.236 212.225 282.077 214.382 278.198C216.527 274.314 219.179 269.743 222.197 264.712C225.242 259.697 228.676 254.235 232.421 248.594C239.929 237.325 247.274 227.5 252.758 220.523C255.499 217.034 257.748 214.232 259.324 212.315C260.081 211.377 260.681 210.635 261.121 210.09C261.304 209.853 261.454 209.661 261.577 209.502C261.677 209.368 261.725 209.296 261.718 209.29C261.711 209.284 261.649 209.343 261.534 209.466C261.4 209.615 261.236 209.796 261.035 210.018C260.576 210.547 259.95 211.267 259.159 212.177C257.531 214.053 255.235 216.819 252.451 220.28C246.884 227.201 239.478 237.003 231.961 248.288" fill="#E0E0E0"/>
<path d="M188.836 176.994C194.166 163.836 197.518 145.588 193.669 131.735C187.719 145.713 186 161.811 188.836 176.994Z" fill="#EBEBEB"/>
<path d="M177.675 161.051C183.005 147.893 186.357 129.645 182.508 115.792C176.558 129.771 174.839 145.869 177.675 161.051Z" fill="#EBEBEB"/>
<path d="M167.546 144.766C172.876 131.608 176.228 113.36 172.379 99.5068C166.429 113.486 164.71 129.584 167.546 144.766Z" fill="#EBEBEB"/>
<path d="M157.469 127.154C161.189 113.343 162.349 94.7536 156.897 81.5356C152.659 96.2488 152.863 112.474 157.469 127.154Z" fill="#EBEBEB"/>
<path d="M150.728 112.638C149.409 98.2643 144.079 80.4839 134.493 70.3931C135.644 85.8173 141.419 100.843 150.728 112.638Z" fill="#EBEBEB"/>
<path d="M153.862 119.614C142.665 110.261 125.955 101.315 111.4 100.894C123.212 111.116 138.315 117.775 153.862 119.614Z" fill="#EBEBEB"/>
<path d="M161.924 134.328C149.484 125.642 131.313 117.882 116.066 118.772C129.217 128.304 145.528 133.837 161.924 134.328Z" fill="#EBEBEB"/>
<path d="M171.957 152.055C159.517 143.37 141.346 135.609 126.098 136.499C139.25 146.032 155.561 151.565 171.957 152.055Z" fill="#EBEBEB"/>
<path d="M185.667 172.33C173.226 163.644 155.056 155.884 139.808 156.774C152.959 166.307 169.271 171.84 185.667 172.33Z" fill="#EBEBEB"/>
<path d="M190.667 179.955C193.265 183.399 195.415 186.15 196.942 188.018C197.683 188.924 198.271 189.641 198.701 190.167C198.89 190.388 199.043 190.569 199.169 190.717C199.277 190.839 199.336 190.899 199.343 190.893C199.351 190.887 199.306 190.816 199.213 190.683C199.098 190.526 198.958 190.334 198.787 190.099C198.376 189.558 197.815 188.82 197.107 187.888C195.632 185.982 193.529 183.197 190.973 179.727C188.407 176.265 185.438 172.078 182.21 167.382C179.006 162.669 175.566 157.432 172.093 151.847C165.164 140.669 159.446 130.215 155.494 122.556C153.517 118.726 151.949 115.61 150.89 113.443C150.367 112.396 149.953 111.567 149.65 110.958C149.515 110.701 149.405 110.49 149.315 110.318C149.237 110.175 149.192 110.104 149.184 110.108C149.176 110.112 149.203 110.19 149.265 110.342C149.342 110.52 149.437 110.738 149.552 111.005C149.833 111.624 150.217 112.467 150.702 113.533C151.703 115.728 153.22 118.872 155.155 122.728C159.024 130.439 164.698 140.936 171.635 152.129" fill="#E0E0E0"/>
<path d="M290.494 125.482C288.036 122.56 284.624 120.792 282.251 120.112C280.029 119.474 276.658 118.887 273.219 119.708C271.083 120.218 269.21 121.214 267.652 122.669C265.805 124.392 264.391 126.773 263.447 129.747C263.306 130.193 263.35 130.666 263.572 131.08C263.794 131.495 264.166 131.795 264.62 131.926L270.447 133.597C271.269 133.832 272.152 133.421 272.5 132.641C273.283 130.888 275.249 128.122 279.632 129.298C282.971 130.195 283.651 132.991 283.789 134.153C284.014 136.043 283.26 137.992 281.774 139.367C279.49 141.479 276.526 141.052 274.961 140.61C273.163 140.101 271.283 141.141 270.771 142.927L268.973 149.198C268.71 150.113 269.242 151.072 270.157 151.335L275.834 152.963C276.75 153.226 277.709 152.694 277.971 151.778L278.349 150.461C278.358 150.429 278.386 150.407 278.419 150.406C279.835 150.323 282.64 149.948 285.526 148.359C289.21 146.331 291.718 143.069 292.981 138.665C294.788 132.361 292.626 128.016 290.494 125.482Z" fill="#EBEBEB"/>
<path d="M272.825 153.808L272.329 153.665C269.954 152.984 267.469 154.362 266.788 156.737C266.107 159.111 267.484 161.597 269.859 162.278L270.356 162.42C272.73 163.101 275.216 161.723 275.897 159.349C276.578 156.974 275.2 154.489 272.825 153.808Z" fill="#EBEBEB"/>
<path d="M98.2074 176.788C95.3772 174.671 91.9302 173.794 89.6478 173.679C87.51 173.572 84.3474 173.75 81.4194 175.213C79.6008 176.122 78.1212 177.413 77.022 179.053C75.72 180.994 74.9448 183.439 74.7186 186.318C74.6844 186.75 74.8236 187.168 75.1104 187.493C75.3984 187.821 75.7974 188.014 76.233 188.036L81.8376 188.318C82.6284 188.357 83.3382 187.802 83.4882 187.025C83.8254 185.279 85.017 182.373 89.2152 182.512C92.4144 182.619 93.615 184.997 93.9834 186.016C94.5828 187.673 94.3134 189.588 93.2622 191.14C91.647 193.524 88.8846 193.763 87.3816 193.693C85.653 193.612 84.177 194.944 84.0906 196.662L83.787 202.693C83.7426 203.574 84.423 204.326 85.3038 204.371L90.765 204.646C91.6458 204.69 92.3982 204.01 92.4426 203.129L92.5062 201.862C92.5074 201.831 92.5278 201.806 92.5578 201.797C93.8166 201.425 96.267 200.497 98.535 198.458C101.43 195.856 103.006 192.388 103.219 188.152C103.525 182.088 100.662 178.625 98.2074 176.788Z" fill="#EBEBEB"/>
<path d="M88.23 206.039L87.7524 206.015C85.4688 205.901 83.517 207.665 83.4024 209.949C83.2872 212.232 85.0518 214.184 87.336 214.299L87.8136 214.323C90.0972 214.438 92.049 212.674 92.1642 210.39C92.2788 208.106 90.5142 206.154 88.23 206.039Z" fill="#EBEBEB"/>
<path d="M69.0654 283.607H74.25C77.301 272.735 78.7692 260.636 76.7712 250.522C72.0912 260.662 69.4692 272.083 69.0654 283.607Z" fill="#EBEBEB"/>
<path d="M68.0832 233.155C61.7088 246.964 59.139 263.15 60.8208 278.738C60.8784 278.86 60.9372 278.983 60.9954 279.106C66.7596 265.932 70.9242 247.538 68.0832 233.155Z" fill="#EBEBEB"/>
<path d="M54.405 213.721C49.7328 227.959 48.8682 243.876 51.912 258.709C52.0998 259.159 52.2924 259.619 52.488 260.083C56.7066 246.174 58.767 227.462 54.405 213.721Z" fill="#EBEBEB"/>
<path d="M45.4914 242.85C45.441 242.691 45.4194 242.608 45.4278 242.605C45.4362 242.601 45.474 242.677 45.54 242.829C45.6156 243.012 45.7086 243.235 45.8214 243.508C45.9126 243.739 46.0194 244.011 46.134 244.302C46.3404 244.634 46.5384 244.973 46.7496 245.301C46.3242 230.447 42.2838 211.841 33.7548 200.875C33.9528 216.163 38.2314 231.332 45.8004 243.761C45.7758 243.692 45.7482 243.614 45.7254 243.55C45.6318 243.269 45.555 243.039 45.4914 242.85Z" fill="#EBEBEB"/>
<path d="M49.068 252.609C49.0242 252.497 48.9816 252.386 48.939 252.275C38.8338 242.099 23.6856 232.103 10.0512 230.78C20.625 241.956 34.4934 249.709 49.068 252.609Z" fill="#EBEBEB"/>
<path d="M56.1408 268.289C56.085 268.241 56.0262 268.193 55.9698 268.145C55.989 268.188 56.0088 268.232 56.028 268.275C56.0658 268.279 56.1036 268.285 56.1408 268.289Z" fill="#EBEBEB"/>
<path d="M13.455 249.445C25.2366 259.912 40.1628 266.564 55.488 268.211C55.3782 267.96 55.2732 267.716 55.1652 267.467C43.866 258.079 27.585 249.479 13.455 249.445Z" fill="#EBEBEB"/>
<path d="M21.9684 268.289C29.685 275.144 38.7534 280.355 48.396 283.607H60.2544C49.239 275.335 34.7268 268.32 21.9684 268.289Z" fill="#EBEBEB"/>
<path d="M50.376 255.947C51.714 259.327 53.322 263.222 55.1646 267.467C55.2726 267.716 55.3776 267.96 55.4874 268.211C57.5706 272.984 59.9508 278.189 62.583 283.607H63.1596C62.4186 282.088 61.6968 280.586 60.9948 279.106C60.9366 278.984 60.8784 278.861 60.8202 278.738C59.0958 275.092 57.4938 271.582 56.028 268.276C56.0088 268.233 55.989 268.188 55.9698 268.146C54.7032 265.286 53.541 262.587 52.4874 260.083C52.2918 259.619 52.0992 259.159 51.9114 258.709C51.4908 257.701 51.0882 256.725 50.7072 255.792C49.0488 251.733 47.7384 248.432 46.857 246.14C46.5768 245.429 46.3386 244.823 46.1334 244.302C46.0188 244.011 45.912 243.74 45.8208 243.509C45.7074 243.236 45.615 243.013 45.5394 242.829C45.4734 242.678 45.4356 242.602 45.4272 242.605C45.4188 242.609 45.4404 242.692 45.4908 242.851C45.5538 243.04 45.6312 243.269 45.7254 243.55C45.7482 243.614 45.7758 243.692 45.8004 243.761C46.0242 244.392 46.3134 245.206 46.6734 246.22C47.2338 247.796 48.0006 249.847 48.939 252.275C48.9816 252.386 49.0242 252.497 49.068 252.609C49.4742 253.657 49.9086 254.767 50.376 255.947Z" fill="#E0E0E0"/>
<path d="M282.231 283.372C282.231 283.462 223.024 283.535 150.006 283.535C76.9626 283.535 17.7684 283.462 17.7684 283.372C17.7684 283.281 76.9626 283.208 150.006 283.208C223.024 283.208 282.231 283.281 282.231 283.372Z" fill="#263238"/>
<path d="M48.9478 91.3057C58.8996 87.4509 63.8421 76.2585 59.9874 66.3067C56.1326 56.355 44.9402 51.4124 34.9884 55.2671C25.0367 59.1219 20.0941 70.3143 23.9489 80.2661C27.8036 90.2178 38.996 95.1604 48.9478 91.3057Z" fill="white"/>
<path d="M61.29 73.2871C61.29 73.2871 61.2762 73.1809 61.2618 72.9745C61.248 72.7597 61.2288 72.4543 61.2036 72.0571C61.1916 71.8549 61.1784 71.6293 61.1634 71.3815C61.1376 71.1343 61.0848 70.8661 61.041 70.5745C60.9948 70.2829 60.945 69.9691 60.8916 69.6343C60.8514 69.2965 60.726 68.9533 60.6396 68.5807C60.2994 67.0879 59.6016 65.3239 58.5 63.4543C57.3894 61.5925 55.7874 59.6473 53.6058 57.9961C53.3316 57.7921 53.0544 57.5857 52.7742 57.3763C52.482 57.1849 52.1742 57.0091 51.87 56.8219C51.5592 56.6455 51.2652 56.4307 50.9322 56.2795C50.6028 56.1217 50.2698 55.9621 49.9338 55.8007C49.7652 55.7209 49.596 55.6405 49.4262 55.5601C49.2492 55.4959 49.0716 55.4311 48.8928 55.3657C48.5358 55.2355 48.1746 55.1041 47.811 54.9715C47.4432 54.8503 47.0586 54.7717 46.6782 54.6685C46.2936 54.5815 45.9156 54.4459 45.5148 54.4051C44.7198 54.2923 43.917 54.1285 43.0848 54.1237C42.6702 54.1093 42.2526 54.0691 41.832 54.0757C41.4114 54.0973 40.9872 54.1195 40.56 54.1411C40.347 54.1561 40.1316 54.1543 39.918 54.1825L39.2772 54.2809C38.8494 54.3517 38.4144 54.4021 37.9848 54.4909C37.137 54.7213 36.2586 54.8935 35.4234 55.2427C34.5618 55.5187 33.7512 55.9441 32.9178 56.3437C32.5122 56.5639 32.1234 56.8201 31.7214 57.0583C31.5252 57.1843 31.3152 57.2911 31.128 57.4333L30.5628 57.8569C29.7822 58.3927 29.0994 59.0629 28.3842 59.7085C28.0602 60.0649 27.735 60.4237 27.408 60.7837L27.1626 61.0543L26.9418 61.3465L26.502 61.9351L26.0604 62.5261L25.6734 63.1579L25.287 63.7939L25.0932 64.1131L24.9288 64.4491C24.7122 64.8985 24.495 65.3503 24.2766 65.8033C24.1038 66.2755 23.9298 66.7495 23.7558 67.2253C23.1294 69.1531 22.7922 71.2003 22.7646 73.2835C22.7922 75.3679 23.1282 77.4157 23.7546 79.3441C23.9292 79.8199 24.1026 80.2945 24.2754 80.7667C24.4938 81.2203 24.711 81.6715 24.9276 82.1215L25.0914 82.4575L25.2852 82.7767L25.6716 83.4127L26.058 84.0451L26.4996 84.6361L26.9394 85.2247L27.1596 85.5169L27.405 85.7875C27.732 86.1475 28.0578 86.5063 28.3812 86.8633C29.0964 87.5089 29.7792 88.1797 30.5604 88.7155L31.1262 89.1391C31.3134 89.2813 31.5234 89.3887 31.7202 89.5141C32.1216 89.7523 32.511 90.0085 32.9166 90.2287C33.75 90.6283 34.56 91.0543 35.4222 91.3297C36.2574 91.6789 37.1358 91.8505 37.9842 92.0815C38.4144 92.1703 38.8494 92.2207 39.2772 92.2915L39.918 92.3899C40.1316 92.4181 40.347 92.4169 40.56 92.4313C40.9872 92.4535 41.4108 92.4751 41.832 92.4973C42.2526 92.5039 42.6702 92.4631 43.0848 92.4493C43.9176 92.4445 44.7204 92.2807 45.5154 92.1679C45.9162 92.1271 46.2942 91.9915 46.6788 91.9045C47.0592 91.8007 47.4438 91.7227 47.8116 91.6015C48.1758 91.4689 48.5364 91.3375 48.8934 91.2073C49.0722 91.1419 49.2498 91.0777 49.4268 91.0129C49.5966 90.9325 49.7664 90.8521 49.9344 90.7723C50.2704 90.6109 50.6034 90.4513 50.9328 90.2935C51.2658 90.1423 51.5604 89.9275 51.8706 89.7511C52.1748 89.5633 52.4832 89.3881 52.7748 89.1967C53.055 88.9879 53.3322 88.7809 53.6064 88.5769C55.7886 86.9257 57.39 84.9805 58.5006 83.1181C59.6016 81.2485 60.3 79.4845 60.6396 77.9917C60.7266 77.6191 60.852 77.2765 60.8916 76.9381C60.945 76.6027 60.9948 76.2895 61.041 75.9979C61.0842 75.7063 61.137 75.4381 61.1634 75.1909C61.1778 74.9431 61.1916 74.7181 61.2036 74.5159C61.2288 74.1187 61.2486 73.8139 61.2618 73.5985C61.2762 73.3933 61.29 73.2871 61.29 73.2871C61.29 73.2871 61.293 73.3933 61.287 73.6003C61.2792 73.8157 61.2678 74.1217 61.2528 74.5201C61.2444 74.7235 61.2348 74.9491 61.2246 75.1981C61.2024 75.4465 61.1532 75.7159 61.1136 76.0093C61.0704 76.3027 61.0242 76.6183 60.975 76.9555C60.9384 77.2957 60.816 77.6413 60.7326 78.0163C60.405 79.5199 59.7162 81.2995 58.6188 83.1889C57.5118 85.0705 55.9068 87.0397 53.712 88.7149C53.436 88.9219 53.1576 89.1313 52.875 89.3431C52.581 89.5375 52.2708 89.7157 51.9648 89.9065C51.6522 90.0859 51.3552 90.3037 51.0198 90.4573C50.688 90.6181 50.3526 90.7801 50.0136 90.9445C49.8438 91.0255 49.6734 91.1071 49.5018 91.1893C49.3236 91.2553 49.1442 91.3213 48.9636 91.3873C48.603 91.5199 48.2394 91.6537 47.8716 91.7887C47.5008 91.9129 47.1126 91.9933 46.728 92.0989C46.3398 92.1877 45.9582 92.3257 45.5532 92.3683C44.7504 92.4847 43.9386 92.6521 43.0974 92.6587C42.6786 92.6743 42.2562 92.7157 41.8308 92.7103C41.4054 92.6893 40.9764 92.6683 40.545 92.6467C40.3296 92.6323 40.1112 92.6341 39.8958 92.6059L39.2478 92.5075C38.8152 92.4367 38.3748 92.3869 37.9398 92.2975C37.0812 92.0665 36.192 91.8931 35.3466 91.5415C34.4742 91.2637 33.6528 90.8347 32.8098 90.4309C32.3988 90.2089 32.0046 89.9503 31.5978 89.7097C31.3986 89.5825 31.1862 89.4739 30.9966 89.3305L30.4236 88.9027C29.6328 88.3609 28.9404 87.6835 28.2162 87.0301C27.888 86.6695 27.558 86.3065 27.2268 85.9423L26.9778 85.6687L26.754 85.3735L26.3082 84.7783L25.8606 84.1801L25.4688 83.5405L25.0776 82.8967L24.8814 82.5739L24.7152 82.2337C24.4956 81.7783 24.2754 81.3211 24.054 80.8621C23.8788 80.3839 23.7024 79.9033 23.5254 79.4215C22.8906 77.4691 22.5492 75.3943 22.5222 73.2841C22.5498 71.1745 22.8918 69.1009 23.5266 67.1491C23.7036 66.6673 23.8794 66.1873 24.0552 65.7091C24.2766 65.2501 24.4968 64.7935 24.7164 64.3381L24.8832 63.9985L25.0794 63.6757L25.4706 63.0319L25.863 62.3923L26.3106 61.7941L26.7564 61.1989L26.9802 60.9037L27.2286 60.6301C27.5598 60.2659 27.8898 59.9035 28.218 59.5429C28.9422 58.8895 29.6346 58.2127 30.4254 57.6709L30.9984 57.2431C31.188 57.0997 31.4004 56.9911 31.5996 56.8639C32.0064 56.6233 32.4006 56.3647 32.811 56.1427C33.6546 55.7389 34.4754 55.3105 35.3478 55.0321C36.1938 54.6811 37.0824 54.5077 37.941 54.2767C38.376 54.1873 38.8164 54.1375 39.249 54.0667L39.897 53.9689C40.113 53.9407 40.3308 53.9425 40.5462 53.9281C40.9782 53.9071 41.4066 53.8855 41.832 53.8645C42.2574 53.8591 42.6792 53.9005 43.098 53.9161C43.9392 53.9233 44.751 54.0901 45.5532 54.2065C45.9582 54.2491 46.3398 54.3865 46.728 54.4759C47.112 54.5815 47.5002 54.6619 47.8716 54.7855C48.2388 54.9205 48.603 55.0543 48.9636 55.1869C49.1436 55.2535 49.323 55.3195 49.5018 55.3849C49.6734 55.4671 49.8438 55.5481 50.0142 55.6297C50.3532 55.7935 50.6886 55.9561 51.0204 56.1169C51.3564 56.2705 51.6528 56.4883 51.9654 56.6677C52.272 56.8579 52.5816 57.0361 52.8756 57.2305C53.1576 57.4423 53.4372 57.6517 53.7126 57.8587C55.9074 59.5333 57.5124 61.5025 58.6194 63.3847C59.7174 65.2747 60.4062 67.0543 60.7338 68.5579C60.8172 68.9329 60.9396 69.2785 60.9762 69.6187C61.0254 69.9559 61.0716 70.2715 61.1148 70.5649C61.1544 70.8583 61.2036 71.1277 61.2258 71.3761C61.236 71.6251 61.2456 71.8513 61.254 72.0547C61.269 72.4531 61.2804 72.7591 61.2882 72.9745C61.293 73.1809 61.29 73.2871 61.29 73.2871Z" fill="#263238"/>
<path d="M35.0916 69.9749H38.763C38.763 69.9749 38.763 66.8921 41.9664 66.8369C43.6302 66.8081 44.4924 67.8983 44.8434 68.7329C45.2502 69.7025 45.1272 70.8071 44.5818 71.7065C43.959 72.7331 42.5946 73.6661 40.1202 73.2305V78.6179H43.7502V76.6595C43.7502 76.6595 48.8412 75.3431 48.8412 69.7325C48.8412 64.3643 44.0268 63.1169 41.9664 63.1169C40.3908 63.1169 35.022 63.4979 35.0916 69.9749Z" fill="#FF725E"/>
<path d="M43.794 80.0159H40.11V83.4569H43.794V80.0159Z" fill="#FF725E"/>
<path d="M62.166 91.3674C62.166 92.9964 60.8454 94.3176 59.2158 94.3176C57.5862 94.3176 56.2656 92.997 56.2656 91.3674C56.2656 89.7384 57.5862 88.4172 59.2158 88.4172C60.8454 88.4172 62.166 89.7384 62.166 91.3674Z" fill="white"/>
<path d="M62.166 91.3673C62.1402 91.3685 62.1492 91.1045 62.028 90.6587C61.9074 90.2213 61.608 89.5817 60.9486 89.0909C60.3114 88.5983 59.2632 88.3241 58.2492 88.7021C57.75 88.8833 57.2742 89.2241 56.9364 89.6939C56.589 90.1577 56.394 90.7529 56.388 91.3667C56.394 91.9805 56.589 92.5757 56.9364 93.0401C57.2742 93.5105 57.75 93.8513 58.2492 94.0325C59.2632 94.4105 60.3114 94.1357 60.9486 93.6437C61.608 93.1529 61.9074 92.5133 62.0274 92.0759C62.1492 91.6301 62.1402 91.3661 62.166 91.3673C62.1744 91.3673 62.1792 91.4321 62.181 91.5569C62.1852 91.6811 62.1708 91.8665 62.1198 92.0993C62.0238 92.5577 61.7382 93.2417 61.0536 93.7811C60.3924 94.3211 59.2728 94.6403 58.173 94.2443C57.6318 94.0547 57.1134 93.6899 56.7438 93.1823C56.3646 92.6813 56.1492 92.0339 56.1438 91.3673C56.1492 90.7013 56.3646 90.0539 56.7438 89.5535C57.1128 89.0459 57.6312 88.6811 58.1724 88.4915C59.2716 88.0955 60.3912 88.4147 61.053 88.9541C61.7382 89.4929 62.0238 90.1775 62.1198 90.6359C62.1708 90.8681 62.1852 91.0535 62.181 91.1783C62.1792 91.3025 62.1744 91.3673 62.166 91.3673Z" fill="#263238"/>
<path d="M271.114 75.6467C279.044 67.7164 279.044 54.8588 271.114 46.9285C263.184 38.9982 250.326 38.9982 242.396 46.9285C234.466 54.8588 234.466 67.7164 242.396 75.6467C250.326 83.577 263.184 83.577 271.114 75.6467Z" fill="white"/>
<path d="M277.064 61.2864C277.064 61.2864 277.05 61.1749 277.035 60.9577C277.021 60.7321 277 60.4111 276.974 59.9935C276.961 59.7811 276.947 59.5441 276.932 59.2837C276.904 59.0239 276.849 58.7418 276.803 58.4353C276.755 58.1287 276.703 57.7993 276.646 57.4471C276.604 57.0919 276.472 56.7313 276.381 56.3401C276.024 54.7717 275.29 52.9177 274.133 50.9527C272.966 48.996 271.282 46.9519 268.989 45.2167C268.701 45.0025 268.41 44.7853 268.115 44.5657C267.808 44.3647 267.484 44.1799 267.164 43.9831C266.838 43.7977 266.529 43.5715 266.179 43.4131C265.832 43.2469 265.483 43.0795 265.129 42.9097C264.952 42.8257 264.775 42.7417 264.596 42.6565C264.41 42.5887 264.223 42.5208 264.035 42.4524C263.66 42.3156 263.281 42.1777 262.898 42.0385C262.512 41.9107 262.108 41.8284 261.708 41.7198C261.304 41.628 260.906 41.4858 260.485 41.4433C259.65 41.325 258.806 41.1529 257.931 41.1481C257.495 41.1331 257.057 41.0905 256.615 41.0977C256.172 41.1205 255.727 41.1433 255.278 41.1667C255.055 41.1823 254.828 41.1804 254.604 41.2104L253.931 41.3143C253.481 41.3887 253.024 41.4414 252.572 41.535C251.681 41.7774 250.758 41.9587 249.88 42.3253C248.974 42.6151 248.123 43.0627 247.247 43.4827C246.821 43.7137 246.412 43.9831 245.99 44.2333C245.784 44.3653 245.563 44.478 245.366 44.6274L244.772 45.0727C243.952 45.6361 243.234 46.3404 242.483 47.0184C242.143 47.3934 241.801 47.7703 241.457 48.1483L241.199 48.4321L240.967 48.7387L240.505 49.3573L240.041 49.9782L239.635 50.6425L239.229 51.3109L239.026 51.6463L238.853 51.9991C238.626 52.4719 238.397 52.9459 238.168 53.4223C237.986 53.9185 237.804 54.4171 237.62 54.9169C236.962 56.9425 236.608 59.0941 236.579 61.2835C236.608 63.4735 236.961 65.6263 237.619 67.6525C237.802 68.1529 237.984 68.6509 238.166 69.1477C238.395 69.6241 238.624 70.0987 238.851 70.5715L239.023 70.9249L239.227 71.2603L239.633 71.9286L240.039 72.5929L240.503 73.2139L240.965 73.8325L241.197 74.1397L241.455 74.4241C241.799 74.8027 242.141 75.1795 242.481 75.5545C243.233 76.2331 243.95 76.9375 244.771 77.5009L245.365 77.9461C245.562 78.0955 245.782 78.2083 245.989 78.3403C246.412 78.5905 246.82 78.8599 247.246 79.0915C248.122 79.5115 248.974 79.959 249.88 80.2489C250.757 80.6155 251.681 80.7967 252.572 81.0391C253.024 81.1327 253.481 81.1855 253.93 81.2598L254.603 81.3637C254.828 81.3931 255.054 81.3918 255.278 81.4075C255.727 81.4309 256.173 81.4537 256.615 81.4765C257.057 81.4831 257.497 81.4404 257.932 81.4254C258.806 81.4207 259.651 81.2485 260.486 81.1297C260.907 81.0865 261.304 80.9442 261.709 80.8524C262.108 80.7439 262.513 80.6617 262.899 80.5339C263.282 80.3947 263.661 80.2567 264.036 80.1199C264.224 80.0515 264.41 79.9836 264.596 79.9158C264.775 79.8312 264.953 79.7466 265.13 79.6626C265.483 79.4928 265.833 79.3255 266.179 79.1593C266.529 79.0003 266.839 78.7747 267.165 78.5892C267.485 78.3924 267.808 78.2083 268.115 78.0067C268.41 77.7871 268.702 77.5699 268.99 77.3556C271.283 75.6204 272.966 73.5756 274.133 71.6196C275.29 69.6546 276.023 67.8013 276.381 66.2329C276.472 65.8417 276.604 65.4811 276.646 65.1259C276.702 64.7737 276.754 64.4443 276.803 64.1377C276.848 63.8311 276.904 63.5497 276.931 63.2899C276.947 63.0295 276.961 62.7925 276.973 62.5801C277 62.1625 277.02 61.8421 277.034 61.6165C277.05 61.3981 277.064 61.2864 277.064 61.2864C277.064 61.2864 277.067 61.3981 277.061 61.6153C277.052 61.8415 277.04 62.1631 277.025 62.5819C277.016 62.7955 277.006 63.0331 276.995 63.2947C276.971 63.5557 276.92 63.8389 276.878 64.1473C276.833 64.4557 276.785 64.7869 276.733 65.1415C276.694 65.4991 276.566 65.8621 276.478 66.2563C276.133 67.8361 275.41 69.7063 274.256 71.6923C273.092 73.6699 271.406 75.7393 269.099 77.4997C268.81 77.7169 268.516 77.9371 268.22 78.1597C267.911 78.3643 267.585 78.5515 267.263 78.7513C266.934 78.9397 266.623 79.1682 266.27 79.3302C265.921 79.4988 265.568 79.6699 265.212 79.8421C265.033 79.9273 264.854 80.013 264.674 80.0994C264.486 80.1684 264.298 80.238 264.109 80.3076C263.729 80.4468 263.347 80.5872 262.961 80.7294C262.571 80.8596 262.163 80.9442 261.76 81.0552C261.352 81.1488 260.95 81.2934 260.525 81.3384C259.681 81.4608 258.828 81.6367 257.944 81.6438C257.504 81.66 257.06 81.7038 256.613 81.6978C256.166 81.6756 255.716 81.6535 255.262 81.6313C255.036 81.6163 254.807 81.6174 254.58 81.588L253.899 81.4848C253.444 81.4104 252.982 81.3577 252.524 81.2641C251.622 81.0211 250.688 80.8386 249.799 80.4697C248.882 80.1774 248.02 79.7269 247.133 79.3027C246.701 79.0693 246.287 78.7975 245.86 78.5449C245.65 78.4111 245.427 78.2971 245.228 78.1465L244.625 77.697C243.794 77.1277 243.067 76.416 242.306 75.729C241.961 75.3498 241.614 74.9688 241.266 74.5861L241.004 74.2987L240.769 73.9879L240.301 73.362L239.83 72.7333L239.418 72.0613L239.006 71.3845L238.8 71.0449L238.625 70.6873C238.395 70.2085 238.163 69.7285 237.931 69.2461C237.746 68.7433 237.561 68.2387 237.376 67.7323C236.708 65.6803 236.35 63.5005 236.321 61.2829C236.35 59.0665 236.71 56.8867 237.377 54.8359C237.563 54.3295 237.748 53.8249 237.933 53.3227C238.165 52.8403 238.397 52.3603 238.628 51.8815L238.803 51.5245L239.009 51.1855L239.42 50.5087L239.833 49.8366L240.303 49.2079L240.772 48.5821L241.007 48.2719L241.268 47.9845C241.616 47.6017 241.963 47.2207 242.308 46.8415C243.068 46.1551 243.796 45.4435 244.627 44.8741L245.229 44.4247C245.428 44.2741 245.651 44.1601 245.861 44.0263C246.288 43.7731 246.702 43.5018 247.134 43.2685C248.02 42.8442 248.883 42.3937 249.8 42.1015C250.688 41.7325 251.623 41.5501 252.525 41.3071C252.982 41.2135 253.445 41.1606 253.899 41.0862L254.58 40.9831C254.807 40.9537 255.036 40.9555 255.262 40.9405C255.716 40.9183 256.166 40.8961 256.613 40.8739C257.06 40.8679 257.504 40.9116 257.944 40.9278C258.828 40.935 259.681 41.1109 260.525 41.2333C260.95 41.2783 261.352 41.4223 261.76 41.5165C262.163 41.6275 262.571 41.7121 262.961 41.8423C263.347 41.9845 263.729 42.1249 264.108 42.2641C264.298 42.3337 264.486 42.4033 264.673 42.4723C264.854 42.5587 265.033 42.6438 265.211 42.729C265.568 42.9012 265.92 43.0723 266.269 43.2409C266.622 43.4023 266.933 43.6308 267.262 43.8198C267.584 44.0196 267.91 44.2074 268.219 44.4114C268.516 44.634 268.809 44.8543 269.099 45.0721C271.405 46.8325 273.092 48.9012 274.256 50.8788C275.41 52.8648 276.134 54.7351 276.478 56.3155C276.566 56.7097 276.694 57.0727 276.733 57.4303C276.785 57.7843 276.833 58.1161 276.878 58.4245C276.92 58.7329 276.971 59.0161 276.995 59.2771C277.006 59.5387 277.016 59.7763 277.025 59.9899C277.04 60.4087 277.052 60.7303 277.061 60.9565C277.067 61.1755 277.064 61.2864 277.064 61.2864Z" fill="#263238"/>
<path d="M249.533 57.8056H253.391C253.391 57.8056 253.391 54.5662 256.757 54.508C258.506 54.478 259.412 55.6234 259.781 56.5006C260.209 57.5194 260.079 58.6804 259.506 59.6254C258.851 60.7042 257.417 61.6852 254.818 61.2268V66.8884H258.632V64.8304C258.632 64.8304 263.983 63.4474 263.983 57.5512C263.983 51.9094 258.923 50.5996 256.758 50.5996C255.101 50.599 249.46 50.9992 249.533 57.8056Z" fill="#FF725E"/>
<path d="M258.678 68.3579H254.806V71.9741H258.678V68.3579Z" fill="#FF725E"/>
<path d="M237.862 78.7848C237.862 80.4972 236.474 81.885 234.762 81.885C233.05 81.885 231.662 80.4972 231.662 78.7848C231.662 77.0724 233.05 75.6846 234.762 75.6846C236.474 75.6846 237.862 77.0724 237.862 78.7848Z" fill="white"/>
<path d="M237.862 78.7848C237.835 78.786 237.845 78.5088 237.717 78.0402C237.59 77.5806 237.276 76.9086 236.583 76.3926C235.913 75.8754 234.812 75.5868 233.747 75.984C233.222 76.1742 232.722 76.5324 232.367 77.0268C232.002 77.5146 231.797 78.1399 231.791 78.7843C231.797 79.4293 232.002 80.0544 232.367 80.5422C232.723 81.0366 233.222 81.3948 233.747 81.585C234.812 81.9828 235.915 81.6936 236.584 81.1764C237.277 80.6604 237.592 79.989 237.718 79.5288C237.845 79.0608 237.835 78.7836 237.862 78.7848C237.871 78.7848 237.876 78.8526 237.878 78.984C237.882 79.1148 237.867 79.3098 237.814 79.554C237.713 80.0358 237.413 80.7546 236.693 81.321C235.997 81.888 234.821 82.224 233.666 81.8076C233.097 81.6084 232.552 81.225 232.164 80.6916C231.766 80.1648 231.539 79.4844 231.533 78.7848C231.539 78.0852 231.766 77.4048 232.164 76.8786C232.552 76.3452 233.096 75.9618 233.665 75.7626C234.821 75.3462 235.997 75.6816 236.692 76.2492C237.412 76.8156 237.713 77.535 237.813 78.0162C237.866 78.2604 237.881 78.4554 237.877 78.5862C237.876 78.717 237.871 78.7848 237.862 78.7848Z" fill="#263238"/>
<path d="M124.99 227.92C118.514 211.697 113.655 200.429 113.655 200.429L54.4386 209.43C54.4386 209.43 43.7952 236.715 44.7162 249.096C45.6372 261.477 49.971 283.278 49.971 283.278H121.628C121.628 283.278 131.466 244.144 124.99 227.92Z" fill="#263238"/>
<path d="M103.619 92.6083C104.083 87.9277 104.785 83.2213 106.498 78.8407C108.211 74.4601 111.017 70.3903 114.982 67.8577L116 68.8045C116.702 66.7927 118.573 65.2381 120.68 64.9153C122.786 64.5925 125.036 65.5159 126.31 67.2247C128.581 66.6127 131.186 67.5403 132.559 69.4501C133.933 71.3599 133.982 74.1247 132.679 76.0831C134.807 76.3531 136.686 78.0277 137.197 80.1109C137.708 82.1941 136.819 84.5485 135.058 85.7731C137.404 87.7999 138.338 91.3093 137.311 94.2343C136.284 97.1593 133.361 99.3139 130.263 99.4291C130.954 102.122 129.551 105.204 127.067 106.452C124.582 107.699 121.273 106.983 119.526 104.819C119.743 107.62 117.503 110.272 114.773 110.939C112.044 111.606 109.07 110.503 107.078 108.521C105.086 106.539 103.993 103.791 103.57 101.014C103.145 98.2369 103.341 95.4043 103.619 92.6083Z" fill="#263238"/>
<path d="M116.221 71.8694C118.944 72.7514 119.501 74.957 120.067 76.7948C121.285 80.7506 119.915 86.6054 117.701 90.1022C115.487 93.5996 113.06 95.3774 108.963 95.969C108.83 89.6888 108.697 83.4092 108.563 77.129L116.221 71.8694Z" fill="#FF725E"/>
<path d="M117.758 82.6848C119.618 80.2692 119.354 76.4754 117.179 74.34C118.371 72.8418 117.943 70.5312 116.731 69.0492C115.519 67.5672 113.719 66.7164 111.981 65.913C111.027 61.53 106.106 58.4472 101.747 59.5002C99.4752 56.1612 94.6356 55.6368 90.759 56.7672C89.8116 57.0432 88.866 57.3996 87.879 57.396C87.1554 57.393 86.4486 57.195 85.731 57.0984C81.7866 56.568 77.8716 59.3448 76.3332 63.0156C76.0872 63.6024 75.8856 64.221 75.4956 64.7238C74.9838 65.3838 74.208 65.7714 73.5468 66.2814C72.117 67.3836 71.2092 69.1356 71.1336 70.9392C71.0694 72.471 71.5572 74.097 70.9116 75.4878C70.5882 76.185 70.0038 76.7484 69.7524 77.4744C69.0228 79.5786 71.3556 81.7302 70.9236 83.9154C70.8354 84.3612 70.6344 84.7764 70.5108 85.2138C70.2582 86.1078 70.344 87.0936 70.7478 87.9306C71.0592 88.5768 71.5614 89.1684 71.6034 89.8842C71.6358 90.4278 71.394 90.945 71.2848 91.4778C71.0184 92.7822 73.833 97.812 74.9592 98.5206L108.639 98.8218C111.188 98.3028 113.264 95.9928 113.509 93.4032C113.55 92.9724 113.557 92.505 113.823 92.1648C114.05 91.8744 114.418 91.7418 114.742 91.5672C116.911 90.4026 117.173 87.4254 116.944 84.9744C116.912 84.6312 116.876 84.2796 116.963 83.946C117.089 83.4612 117.452 83.0814 117.758 82.6848Z" fill="#263238"/>
<path d="M108.109 82.7328C108.209 76.7724 104.471 69.9228 98.5494 67.008C94.8168 65.1702 91.905 65.1588 89.943 64.9296C85.5468 64.4172 81.9996 66.5952 81.9996 66.5952C80.1432 67.0314 73.3404 73.2606 72.987 80.0196C72.5946 87.5286 72.4116 96.7122 73.3608 102.302C75.2694 113.541 83.9136 114.882 83.9136 114.882C83.9148 114.865 83.109 133.565 83.109 133.565L99.7224 147.181L104.798 124.826L108.109 82.7328Z" fill="#FFBF9D"/>
<path d="M83.9136 114.882C83.9136 114.882 91.5432 115.291 98.9988 110.701C98.9988 110.701 95.07 118.679 83.79 117.746L83.9136 114.882Z" fill="#FF9A6C"/>
<path d="M106.41 93.4225C106.403 92.5837 107.351 90.5965 108.178 90.4585C110.385 90.0901 114.373 90.2251 114.47 95.8399C114.602 103.516 107.068 101.801 106.852 101.846C105.628 102.097 106.434 96.3175 106.41 93.4225Z" fill="#FFBF9D"/>
<path d="M108.92 99.0056C108.954 98.9804 109.056 99.0968 109.283 99.1964C109.506 99.293 109.886 99.3566 110.284 99.2C111.089 98.8886 111.75 97.589 111.763 96.2048C111.77 95.5058 111.613 94.8428 111.356 94.2962C111.112 93.7388 110.742 93.353 110.332 93.2876C109.925 93.2006 109.64 93.4502 109.549 93.6674C109.45 93.884 109.502 94.037 109.461 94.0502C109.44 94.07 109.294 93.9248 109.351 93.6068C109.379 93.4538 109.466 93.2708 109.645 93.1202C109.826 92.9672 110.095 92.8862 110.38 92.912C110.973 92.9432 111.515 93.4784 111.797 94.0778C112.112 94.6802 112.306 95.4242 112.298 96.2096C112.276 97.757 111.509 99.218 110.404 99.5582C109.867 99.7082 109.414 99.5534 109.178 99.3764C108.937 99.191 108.895 99.02 108.92 99.0056Z" fill="#FF9A6C"/>
<path d="M71.3406 78.8828C71.5848 76.0946 72.6954 73.451 74.0406 70.997C74.9718 69.2984 76.0428 67.6406 77.508 66.374C78.7326 65.3156 80.1906 64.5674 81.6534 63.8738C85.4988 62.0498 89.7882 60.5024 93.9402 61.4378C96.1692 61.94 98.1756 63.1244 100.128 64.3118C101.624 65.222 103.126 66.1538 104.38 67.3772C105.479 68.4506 106.363 69.7256 107.143 71.0492C109.001 74.2046 110.314 77.732 110.565 81.386C110.816 85.0394 113.581 88.2698 111.438 91.2404C111.272 91.4702 107.457 92.2604 107.194 92.3654C106.574 92.612 105.892 91.9394 105.896 91.2722C105.901 90.605 106.361 90.0296 106.855 89.5814C105.905 89.5496 105.254 88.4918 105.314 87.5432C105.374 86.5946 105.935 85.7594 106.499 84.9944C106.572 84.8942 106.649 84.7886 106.664 84.6656C106.703 84.3416 106.337 84.1424 106.057 83.9768C104.689 83.1674 104.537 80.9168 105.783 79.931C103.952 79.5068 102.766 77.3048 103.418 75.542C103.521 75.2636 103.661 74.951 103.528 74.6852C103.4 74.4302 103.083 74.3504 102.809 74.2688C100.784 73.6682 99.4218 71.3792 99.8616 69.3122C98.796 69.368 97.713 69.4226 96.6762 69.1706C95.6394 68.9192 94.6368 68.3126 94.1628 67.3568C93.483 68.5808 92.1486 69.4154 90.7506 69.4898C89.3526 69.5648 87.9366 68.8778 87.1302 67.7336C85.3422 67.9046 83.5134 67.6214 81.861 66.9182C81.4554 68.5838 80.1414 69.9986 78.51 70.526C78.1932 70.6286 77.829 70.7282 77.6766 71.024C77.5794 71.2124 77.595 71.4362 77.6064 71.648C77.6628 72.7196 76.9326 73.1762 76.3416 74.072C75.7506 74.9678 74.7204 76.3022 73.6884 76.0064C73.803 77.8316 72.8268 79.1606 71.2854 80.1458L71.3406 78.8828Z" fill="#263238"/>
<path d="M69.7524 77.4745C69.7524 77.4745 69.8262 77.1571 70.1586 76.6471C70.3188 76.3903 70.5462 76.0909 70.7598 75.7081C70.9686 75.3247 71.1342 74.8387 71.1774 74.2699C71.2338 73.7029 71.1816 73.0669 71.127 72.3715C71.0724 71.6785 71.0136 70.9051 71.1672 70.0921C71.313 69.2827 71.6328 68.4415 72.1548 67.6651C72.4158 67.2775 72.7272 66.9067 73.0896 66.5701C73.4496 66.2299 73.872 65.9431 74.2944 65.6575C74.7138 65.3683 75.1386 65.0593 75.4518 64.6411C75.7668 64.2229 75.9588 63.7099 76.1664 63.1897C76.5834 62.1409 77.1918 61.1131 78.0048 60.2059C78.8124 59.2987 79.7964 58.4755 80.9592 57.8917C81.5304 57.5791 82.1598 57.3679 82.8012 57.1807C83.4528 57.0337 84.1272 56.9179 84.8166 56.9347C85.1604 56.9299 85.506 56.9749 85.8516 57.0079C86.1954 57.0583 86.5344 57.1279 86.8746 57.1849C87.5538 57.3139 88.2408 57.3277 88.926 57.1693C89.6118 57.0277 90.2838 56.7745 90.9918 56.5915C91.695 56.3911 92.4252 56.2723 93.1644 56.1883C93.9048 56.1061 94.6584 56.1055 95.4138 56.1481C96.1698 56.2045 96.9258 56.3377 97.6692 56.5435C99.141 56.9791 100.576 57.7909 101.555 59.0605C101.652 59.1865 101.748 59.3119 101.843 59.4361L101.72 59.3887C104.038 58.8337 106.466 59.4391 108.341 60.6679C110.23 61.8925 111.635 63.7921 112.09 65.8903L112.028 65.8141C112.96 66.2455 113.882 66.6793 114.731 67.2121C115.579 67.7425 116.358 68.3779 116.945 69.1585C117.526 69.9427 117.882 70.8661 117.966 71.7997C118.054 72.7297 117.825 73.6921 117.254 74.4013L117.247 74.2729C118.352 75.3625 118.917 76.8181 119.047 78.1993C119.179 79.5871 118.899 80.9413 118.281 82.0207C118.141 82.2985 117.949 82.5397 117.778 82.7845C117.592 83.0191 117.403 83.2381 117.255 83.4739C117.106 83.7097 117.008 83.9629 116.988 84.2287C116.964 84.4945 116.995 84.7609 117.016 85.0255C117.106 86.0839 117.091 87.0667 116.959 87.9397C116.825 88.8109 116.58 89.5753 116.222 90.1633C115.873 90.7567 115.433 91.1635 115.039 91.4191C114.644 91.6837 114.295 91.7881 114.101 91.9321C113.9 92.0641 113.83 92.1727 113.824 92.1661C113.824 92.1661 113.885 92.0509 114.085 91.9081C114.277 91.7533 114.626 91.6387 115.007 91.3711C115.39 91.1119 115.814 90.7069 116.149 90.1207C116.492 89.5399 116.726 88.7851 116.849 87.9241C116.972 87.0607 116.979 86.0875 116.882 85.0375C116.86 84.7753 116.825 84.5017 116.848 84.2167C116.867 83.9305 116.975 83.6443 117.131 83.3971C117.286 83.1475 117.478 82.9231 117.658 82.6915C117.824 82.4509 118.009 82.2157 118.144 81.9445C118.739 80.8915 119.006 79.5685 118.872 78.2161C118.739 76.8697 118.182 75.4579 117.112 74.4097L117.05 74.3491L117.104 74.2813C117.636 73.6141 117.852 72.7075 117.766 71.8171C117.683 70.9243 117.337 70.0339 116.777 69.2827C116.21 68.5321 115.451 67.9123 114.617 67.3939C113.78 66.8725 112.867 66.4435 111.935 66.0139L111.886 65.9911L111.874 65.9371C111.43 63.9037 110.06 62.0533 108.216 60.8587C106.385 59.6605 104.018 59.0749 101.774 59.6131L101.701 59.6305L101.651 59.5657C101.56 59.4463 101.467 59.3251 101.373 59.2033C100.428 57.9787 99.0408 57.1903 97.6038 56.7643C96.8778 56.5627 96.138 56.4319 95.3964 56.3761C94.6548 56.3335 93.9144 56.3335 93.186 56.4139C92.4594 56.4955 91.7406 56.6119 91.0488 56.8081C90.3534 56.9857 89.6766 57.2407 88.9698 57.3859C88.617 57.4597 88.2576 57.5059 87.8964 57.5065C87.5352 57.5065 87.1812 57.4585 86.8368 57.3997C86.4918 57.3409 86.1546 57.2713 85.8186 57.2215C85.482 57.1891 85.1478 57.1441 84.8136 57.1483C84.144 57.1303 83.4876 57.2419 82.8516 57.3829C82.2258 57.5641 81.6102 57.7681 81.051 58.0729C79.9116 58.6405 78.9438 59.4457 78.1476 60.3331C77.346 61.2223 76.746 62.2261 76.3314 63.2569C76.122 63.7723 75.924 64.3009 75.588 64.7443C75.2514 65.1883 74.8092 65.5045 74.3862 65.7931C73.9584 66.0793 73.5468 66.3559 73.1946 66.6847C72.84 67.0105 72.5334 67.3705 72.2766 67.7479C71.7612 68.5033 71.4426 69.3247 71.2944 70.1161C71.1384 70.9099 71.1882 71.6695 71.2368 72.3643C71.2848 73.0597 71.331 73.7029 71.2668 74.2795C71.2164 74.8567 71.0388 75.3553 70.8198 75.7423C70.596 76.1281 70.3632 76.4215 70.1976 76.6735C70.0272 76.9225 69.9174 77.1241 69.8508 77.2633C69.7836 77.4007 69.7584 77.4763 69.7524 77.4745Z" fill="#455A64"/>
<path d="M98.1294 57.8426C98.118 57.86 97.926 57.728 97.551 57.548C97.1772 57.371 96.609 57.1508 95.8734 57.0734C95.1438 56.9918 94.2396 57.0602 93.3534 57.461C92.4732 57.8588 91.6188 58.5806 91.0734 59.5592C90.9168 59.84 90.783 60.1388 90.699 60.431C90.6186 60.7214 90.6084 61.0298 90.7614 61.2392L90.951 61.499L90.6402 61.4138C89.787 61.1798 88.9122 61.349 88.269 61.715C87.6144 62.0798 87.2028 62.6426 86.9784 63.146C86.751 63.6548 86.6994 64.1078 86.6886 64.4132C86.6802 64.721 86.706 64.8896 86.6886 64.892C86.682 64.8932 86.67 64.8524 86.6526 64.772C86.6346 64.6922 86.6178 64.5716 86.6106 64.4138C86.5968 64.1012 86.6268 63.629 86.8458 63.0896C87.0606 62.5568 87.4812 61.9478 88.1718 61.5464C88.8492 61.1456 89.778 60.9512 90.7008 61.1972L90.5796 61.3718C90.3642 61.073 90.3918 60.6878 90.4782 60.3716C90.5712 60.0476 90.7074 59.7452 90.8724 59.447C91.4442 58.421 92.3424 57.6722 93.2676 57.2672C94.2012 56.8586 95.1444 56.807 95.8944 56.912C96.6516 57.0134 97.2258 57.2642 97.5936 57.4688C97.7778 57.5726 97.9152 57.6626 98.0028 57.7316C98.0904 57.7982 98.1342 57.836 98.1294 57.8426Z" fill="#455A64"/>
<path d="M110.655 66.557C110.664 66.5672 110.574 66.6692 110.389 66.8336C110.203 66.9962 109.921 67.2236 109.525 67.4438C109.132 67.6598 108.616 67.8746 107.998 67.9154C107.39 67.9568 106.667 67.8236 106.087 67.3538L106.257 67.3268C106.184 67.43 106.11 67.5362 106.034 67.6436C105.953 67.7468 105.862 67.8452 105.775 67.9478C105.214 68.5364 104.531 68.9414 103.866 69.1562C103.202 69.3788 102.564 69.4376 102.038 69.4004C101.511 69.3638 101.1 69.2378 100.826 69.1346C100.558 69.0176 100.418 68.936 100.424 68.9234C100.44 68.8754 101.021 69.2006 102.046 69.2372C102.554 69.2522 103.164 69.179 103.796 68.9552C104.429 68.7386 105.075 68.3468 105.605 67.79C105.688 67.6928 105.774 67.5998 105.851 67.5026C105.923 67.4012 105.994 67.3016 106.062 67.2044L106.137 67.0988L106.232 67.1768C106.75 67.6016 107.415 67.7384 107.986 67.7114C108.564 67.6862 109.064 67.4996 109.454 67.3076C110.234 66.9062 110.63 66.5234 110.655 66.557Z" fill="#455A64"/>
<path d="M114.768 73.6441C114.776 73.6459 114.77 73.6939 114.751 73.7857C114.725 73.8745 114.682 74.0083 114.583 74.1583C114.396 74.4607 113.98 74.8297 113.352 74.9905C112.721 75.1603 111.938 75.0391 111.157 74.7697C110.765 74.6329 110.359 74.4961 109.942 74.3017C109.537 74.1067 109.094 73.8247 108.874 73.3441C108.857 73.3021 108.84 73.2595 108.825 73.2211L109.006 73.2745C108.272 73.8583 107.513 74.3671 106.74 74.6599C105.971 74.9641 105.197 75.0169 104.586 74.8993C103.97 74.7883 103.515 74.5303 103.253 74.3059C103.119 74.1955 103.028 74.0959 102.973 74.0239C102.917 73.9519 102.892 73.9123 102.898 73.9069C102.914 73.8925 103.035 74.0395 103.307 74.2351C103.576 74.4307 104.021 74.6533 104.612 74.7391C105.202 74.8303 105.928 74.7649 106.663 74.4619C107.402 74.1697 108.136 73.6717 108.863 73.0927L108.984 72.9961L109.044 73.1467C109.057 73.1791 109.07 73.2139 109.085 73.2493C109.265 73.6477 109.652 73.9093 110.04 74.0977C110.432 74.2849 110.843 74.4289 111.226 74.5687C111.988 74.8435 112.725 74.9695 113.313 74.8321C113.905 74.7013 114.31 74.3773 114.508 74.1073C114.714 73.8355 114.745 73.6363 114.768 73.6441Z" fill="#455A64"/>
<path d="M89.9814 89.232C89.931 89.9808 90.5232 90.6408 91.3038 90.708C92.0832 90.7752 92.7576 90.2244 92.8086 89.4756C92.859 88.7268 92.2668 88.0662 91.4874 87.999C90.7062 87.9312 90.0318 88.4838 89.9814 89.232Z" fill="#263238"/>
<path d="M76.2234 88.8554C76.1724 89.6042 76.7652 90.2642 77.5458 90.3314C78.3252 90.3986 78.9996 89.8477 79.05 89.0983C79.1004 88.3495 78.5082 87.6884 77.7288 87.6218C76.9482 87.5546 76.2738 88.1066 76.2234 88.8554Z" fill="#263238"/>
<path d="M75.663 84.1454C75.8328 84.3362 76.9338 83.5748 78.4614 83.6282C79.9878 83.6594 81.084 84.4814 81.255 84.2996C81.3396 84.2192 81.1704 83.8796 80.694 83.5082C80.2248 83.1392 79.416 82.7684 78.4644 82.7414C77.5128 82.7162 76.701 83.0408 76.2294 83.3846C75.7488 83.7296 75.579 84.059 75.663 84.1454Z" fill="#263238"/>
<path d="M90.8538 84.9073C91.0428 85.0795 92.061 84.2095 93.585 84.1057C95.106 83.9797 96.2808 84.6847 96.4332 84.4867C96.5082 84.3979 96.3078 84.0775 95.7936 83.7571C95.289 83.4373 94.4472 83.1523 93.4974 83.2237C92.5482 83.2963 91.7742 83.7025 91.3404 84.0931C90.8982 84.4855 90.762 84.8311 90.8538 84.9073Z" fill="#263238"/>
<path d="M85.1574 96.3738C85.1676 96.2874 84.2232 96.093 82.6908 95.8464C82.302 95.7936 81.9354 95.7042 81.8784 95.436C81.7956 95.151 81.972 94.7358 82.176 94.2882C82.5732 93.3564 82.9884 92.379 83.4252 91.3554C85.1628 87.1782 86.4342 83.7384 86.2656 83.67C86.097 83.6016 84.5508 86.9316 82.8132 91.1088C82.3944 92.139 81.9936 93.1212 81.6126 94.0608C81.4506 94.4994 81.1806 94.9944 81.3612 95.5854C81.4572 95.8806 81.7362 96.1008 81.984 96.1764C82.2318 96.2604 82.4508 96.2718 82.6434 96.2898C84.1884 96.423 85.149 96.4608 85.1574 96.3738Z" fill="#263238"/>
<path d="M87.5232 98.6449C88.0956 98.7253 88.6674 99.021 89.0016 99.4998C89.3352 99.9786 89.5764 101.099 89.2452 101.535C88.962 101.907 87.7008 101.905 86.8332 101.796C86.4312 101.746 86.0958 101.467 85.9626 101.084L85.62 100.099C85.425 99.5376 85.7166 98.9076 86.2842 98.7294C86.6688 98.6088 87.0984 98.5855 87.5232 98.6449Z" fill="#FF9A6C"/>
<path d="M90.1584 79.3297C90.3858 79.7089 91.8462 79.2234 93.6468 79.0926C95.4462 78.9258 96.9654 79.1641 97.1274 78.7531C97.1976 78.5575 96.8754 78.222 96.2244 77.9388C95.5788 77.6556 94.5984 77.4576 93.519 77.5458C92.4396 77.6358 91.5054 77.9923 90.915 78.3781C90.3204 78.7645 90.0576 79.1485 90.1584 79.3297Z" fill="#263238"/>
<path d="M76.0398 81.6366C76.3602 81.975 77.5692 81.5826 79.0344 81.5256C80.4972 81.4248 81.7476 81.6858 82.023 81.315C82.1436 81.1356 81.9384 80.793 81.3876 80.4792C80.844 80.1666 79.9428 79.923 78.9366 79.9764C77.9304 80.031 77.0664 80.3694 76.566 80.7384C76.0584 81.1092 75.8976 81.471 76.0398 81.6366Z" fill="#263238"/>
<path d="M128.68 145.073L114.267 197.35L119.323 212.335C100.291 220.723 72.7794 223.389 51.093 212.88C51.093 212.88 58.4592 191.265 58.71 187.057C58.9608 182.849 57.15 158.271 59.1546 150.028C61.1592 141.785 66.8982 124.118 66.8982 124.118L83.7792 121.438C91.5192 125.596 96.4752 126.214 104.799 121.397L120.524 124.826L128.68 145.073Z" fill="#455A64"/>
<path d="M67.1544 124.09C67.1544 124.09 58.089 125.05 54.4386 132.506C50.8326 139.873 40.8228 172.474 40.278 177.919C39.7332 183.365 44.1516 190.696 48.0036 191.71L59.6838 180.065L69.3744 180.928L82.1334 121.396L67.1544 124.09Z" fill="#455A64"/>
<g opacity="0.3">
<path d="M60.3096 144.116C57.4908 151.428 56.694 159.508 58.0302 167.229C55.9026 166.435 53.7756 165.64 51.648 164.845C53.3868 167.247 55.671 169.251 58.2792 170.662C56.5584 170.165 54.795 169.662 53.007 169.779C51.2196 169.896 49.3722 170.757 48.5682 172.358C50.6544 171.977 52.7778 171.594 54.8844 171.84C56.991 172.086 59.1162 173.059 60.2502 174.851C58.677 168.06 58.0716 161.047 58.4574 154.087" fill="black"/>
</g>
<g opacity="0.3">
<path d="M57.6618 188.95L105.235 193.664C101.806 193.591 99.1674 196.494 96.1986 198.211C90.7014 201.39 83.8554 200.501 77.5818 199.515C72.384 198.697 67.1862 197.88 61.9884 197.062C60.6768 196.856 59.2794 196.609 58.3128 195.699C56.58 194.068 57.054 191.251 57.6618 188.95Z" fill="black"/>
</g>
<path d="M93.9948 185.039L101.961 177.348C102.734 176.602 103.792 176.23 104.862 176.331C107.136 176.546 110.989 176.946 111.781 177.255C112.921 177.697 113.996 178.33 114.313 178.9C114.63 179.47 115.706 182.888 115.769 183.394C115.799 183.64 115.726 184.35 115.642 185.015C115.542 185.8 114.678 186.264 113.989 185.874C113.679 185.699 113.397 185.468 113.237 185.167C112.73 184.217 112.794 183.837 112.794 183.837C112.794 183.837 113.047 187.255 110.262 187.318C110.262 187.318 111.545 190.23 107.96 191.433C107.96 191.433 108.092 193.332 105.094 193.585C102.096 193.839 99.3744 193.585 99.3744 193.585C99.3744 193.585 93.894 197.522 90.0324 197.775C86.1714 198.028 77.526 196.341 77.526 196.341L76.4826 180.417L93.9948 185.039Z" fill="#FFBF9D"/>
<path d="M104.788 180.16C104.779 180.187 105.265 180.393 106.064 180.694C106.864 180.993 107.978 181.392 109.241 181.728C109.867 181.906 110.498 182.007 111.022 182.15C111.555 182.293 111.876 182.692 112.108 183.04C112.339 183.393 112.523 183.693 112.682 183.876C112.839 184.061 112.95 184.139 112.958 184.13C112.97 184.117 112.88 184.02 112.748 183.825C112.612 183.632 112.454 183.33 112.234 182.959C112.121 182.775 111.987 182.574 111.8 182.389C111.616 182.202 111.359 182.051 111.082 181.963C110.521 181.798 109.923 181.7 109.295 181.522C108.041 181.189 106.925 180.814 106.113 180.552C105.304 180.287 104.798 180.132 104.788 180.16Z" fill="#FF9A6C"/>
<path d="M103.763 185.041C103.753 185.068 104.091 185.226 104.65 185.451C105.208 185.676 105.988 185.965 106.859 186.256C107.731 186.548 108.528 186.786 109.109 186.943C109.691 187.099 110.056 187.177 110.064 187.149C110.072 187.12 109.723 186.991 109.154 186.798C108.508 186.582 107.757 186.331 106.927 186.053C106.098 185.776 105.347 185.524 104.702 185.308C104.13 185.121 103.774 185.013 103.763 185.041Z" fill="#FF9A6C"/>
<path d="M101.794 189.581C101.788 189.646 103.181 189.789 104.839 190.24C106.5 190.683 107.776 191.261 107.803 191.201C107.815 191.176 107.51 191 106.99 190.769C106.471 190.538 105.733 190.261 104.894 190.034C104.056 189.808 103.279 189.677 102.713 189.616C102.148 189.555 101.796 189.554 101.794 189.581Z" fill="#FF9A6C"/>
<path d="M83.343 197.35L48.003 191.709C48.003 191.709 52.2498 173.983 58.4454 173.983C59.3532 173.983 90.744 184.182 90.744 184.182L83.343 197.35Z" fill="#455A64"/>
<path d="M89.526 189.633C89.5482 189.653 89.8578 189.357 90.3546 188.874C90.9006 188.338 91.5582 187.692 92.2854 186.978C93.0354 186.232 93.7044 185.545 94.1742 185.034C94.6446 184.524 94.9158 184.19 94.8948 184.17C94.8726 184.15 94.563 184.446 94.0662 184.929C93.5202 185.465 92.8626 186.111 92.1348 186.826C91.3848 187.572 90.7158 188.257 90.2466 188.769C89.7768 189.279 89.505 189.613 89.526 189.633Z" fill="#FF9A6C"/>
<path d="M90.7446 184.181C90.7398 184.198 90.585 184.169 90.2952 184.097C89.9496 184.006 89.5344 183.895 89.0358 183.762C87.8694 183.427 86.3154 182.98 84.4308 182.437C80.5488 181.298 75.1968 179.69 69.2946 177.884C66.0264 176.875 62.9304 175.919 60.1818 175.07L60.1104 175.048L60.057 174.976C58.974 173.519 57.378 172.632 55.938 172.193C54.474 171.746 53.1042 171.692 51.9984 171.792C50.8866 171.883 50.0298 172.127 49.4526 172.301C48.8772 172.486 48.579 172.618 48.567 172.595C48.555 172.573 48.8352 172.395 49.4034 172.163C49.9734 171.943 50.8332 171.652 51.9696 171.519C53.0988 171.377 54.5148 171.394 56.046 171.828C57.564 172.269 59.2242 173.127 60.441 174.726L60.3162 174.632C63.069 175.467 66.1698 176.407 69.4428 177.4C75.345 179.206 80.6802 180.868 84.5352 182.095C86.4 182.701 87.9384 183.199 89.0928 183.574C89.5806 183.743 89.9868 183.884 90.3246 184.001C90.6054 184.102 90.75 184.165 90.7446 184.181Z" fill="#263238"/>
<path d="M81.3816 127.523C81.6768 126.54 83.337 117.459 84.012 115.347C84.9642 112.368 92.7048 107.041 92.7048 107.041C92.7048 107.041 91.491 104.244 88.1952 105.698C84.2934 107.419 82.3644 110.316 81.3816 109.726C80.3988 109.136 74.2698 102.897 72.5982 103.094C70.9272 103.291 70.56 105.005 71.1498 105.693C71.7396 106.381 72.4014 107.517 72.4014 107.517C72.4014 107.517 68.8626 106.452 69.5508 110.327C69.5508 110.327 65.5206 107.812 65.9136 113.12C65.9136 113.12 63.2598 112.039 62.67 113.907C62.0802 115.774 63.8292 117.937 64.7142 119.412C65.5992 120.886 68.4696 129.438 68.4696 129.438L68.5032 136.978L82.5954 134.082L81.3816 127.523Z" fill="#FFBF9D"/>
<path d="M81.3816 127.523C81.3924 127.524 81.4296 127.671 81.4926 127.956C81.5586 128.271 81.6462 128.689 81.7572 129.22C81.9822 130.363 82.3026 131.987 82.7112 134.06L82.7334 134.173L82.6188 134.197C79.1388 134.932 74.3262 135.948 68.5422 137.169L68.3088 137.218L68.307 136.978C68.2896 134.656 68.2704 132.117 68.25 129.438L68.2614 129.507C67.2558 126.606 66.2106 123.487 64.8978 120.335C64.2558 118.817 62.9184 117.494 62.436 115.652C62.3178 115.196 62.2632 114.704 62.3424 114.212C62.4162 113.74 62.6394 113.196 63.1056 112.899C63.5586 112.599 64.0956 112.533 64.5804 112.567C65.0748 112.603 65.5386 112.711 66.0078 112.887L65.6628 113.138C65.643 112.62 65.6226 112.093 65.697 111.549C65.7936 111.019 65.913 110.428 66.3708 109.981C66.8142 109.513 67.512 109.413 68.0742 109.513C68.6544 109.609 69.1788 109.815 69.6846 110.11L69.3006 110.37C69.2064 109.657 69.0846 108.789 69.564 108.009C69.8628 107.518 70.4208 107.237 70.9392 107.164C71.469 107.088 71.9688 107.142 72.4734 107.273L72.1812 107.643C71.8278 107.052 71.4486 106.462 71.0274 105.941C70.755 105.669 70.6116 105.197 70.6344 104.814C70.6548 104.416 70.7892 104.033 71.0178 103.712C71.2446 103.39 71.5716 103.142 71.931 103.002C72.1116 102.936 72.2952 102.883 72.4824 102.858C72.663 102.832 72.9168 102.861 73.0926 102.91C73.8162 103.144 74.3694 103.549 74.931 103.939C77.1294 105.545 79.0134 107.388 80.9136 109.051C81.1404 109.237 81.42 109.499 81.5856 109.546C81.756 109.602 82.0386 109.47 82.2828 109.324C82.785 109.012 83.2638 108.61 83.7474 108.236C84.7098 107.472 85.7028 106.758 86.745 106.172C87.7812 105.625 88.8738 105.019 90.105 105.07C91.3404 105.096 92.4012 105.918 92.8938 106.956L92.9658 107.107L92.8212 107.209C89.805 109.353 87.0936 111.464 85.1754 113.735C84.6978 114.307 84.3258 114.909 84.1134 115.55C83.916 116.212 83.763 116.871 83.616 117.5C83.3388 118.762 83.0838 119.922 82.8534 120.971C82.4118 123.041 82.0632 124.674 81.8172 125.826C81.693 126.384 81.5928 126.809 81.5166 127.094C81.4452 127.382 81.3816 127.523 81.3816 127.523C81.3684 127.524 81.4032 127.373 81.4566 127.083C81.5166 126.763 81.5964 126.34 81.6972 125.803C81.9168 124.646 82.2282 123.006 82.6224 120.926C82.8384 119.872 83.0766 118.707 83.3358 117.439C83.4762 116.804 83.6202 116.145 83.8158 115.462C84.0342 114.768 84.435 114.112 84.915 113.527C86.8614 111.18 89.5566 109.054 92.5872 106.869L92.5146 107.123C92.0808 106.237 91.1496 105.513 90.0894 105.506C89.025 105.458 87.9846 106.021 86.9682 106.567C85.956 107.142 84.9918 107.841 84.0378 108.604C83.5542 108.981 83.085 109.382 82.5276 109.732C82.245 109.883 81.9276 110.106 81.4674 110.009C81.0342 109.849 80.8722 109.617 80.6028 109.417C78.681 107.745 76.7976 105.915 74.6436 104.347C74.1084 103.971 73.5378 103.577 72.9576 103.395C72.8112 103.362 72.7116 103.343 72.5592 103.357C72.4062 103.377 72.2622 103.421 72.12 103.471C71.841 103.581 71.5998 103.767 71.4294 104.009C71.0904 104.485 71.0052 105.202 71.4198 105.622C71.8746 106.184 72.2532 106.776 72.6216 107.39L72.942 107.924L72.3294 107.76C71.5086 107.541 70.428 107.565 69.9936 108.284C69.6354 108.837 69.7056 109.625 69.8016 110.283L69.879 110.814L69.4176 110.543C68.9862 110.29 68.4846 110.093 68.0016 110.017C67.5156 109.936 67.032 110.019 66.7272 110.343C66.1038 111.016 66.1212 112.152 66.165 113.103L66.1824 113.486L65.82 113.354C65.0256 113.064 64.0332 112.893 63.3876 113.312C63.0666 113.515 62.9022 113.887 62.8326 114.295C62.7666 114.7 62.8092 115.123 62.9148 115.533C63.1284 116.356 63.5622 117.125 64.0182 117.862C64.4664 118.593 65.0094 119.321 65.3376 120.145C66.6582 123.345 67.6836 126.453 68.6784 129.37L68.6898 129.403V129.438C68.6934 132.117 68.697 134.656 68.7 136.978L68.4648 136.788C74.2614 135.629 79.0848 134.665 82.5726 133.968L82.4802 134.104C82.1178 132.013 81.834 130.375 81.6348 129.222C81.549 128.69 81.4818 128.271 81.4308 127.955C81.3876 127.668 81.3714 127.522 81.3816 127.523Z" fill="#FF9A6C"/>
<path d="M72.4146 107.615C72.3768 107.663 73.1724 108.343 74.1252 109.211C75.0798 110.078 75.8316 110.805 75.876 110.763C75.918 110.724 75.2298 109.926 74.2686 109.054C73.3098 108.179 72.4494 107.57 72.4146 107.615Z" fill="#FF9A6C"/>
<path d="M69.2634 110.115C69.213 110.136 69.5148 110.899 70.1316 111.689C70.7442 112.484 71.4078 112.966 71.4408 112.922C71.4822 112.874 70.8966 112.332 70.3008 111.559C69.6996 110.789 69.3198 110.087 69.2634 110.115Z" fill="#FF9A6C"/>
<path d="M65.9688 112.926C65.9208 112.96 66.2526 113.502 66.7092 114.135C67.1664 114.768 67.575 115.253 67.623 115.219C67.671 115.184 67.3392 114.643 66.8826 114.01C66.4254 113.377 66.0168 112.891 65.9688 112.926Z" fill="#FF9A6C"/>
<path d="M120.523 124.826L105.367 139.949L89.8182 159.484L83.6346 133.451L67.8342 136.698C67.8342 136.698 68.949 166.105 73.8114 179.432C74.7366 181.969 77.4744 183.855 78.6954 184.435C86.334 188.063 93.7914 182.45 93.7914 182.45C93.7914 182.45 125.659 161.062 129.113 146.743C130.745 139.982 130.091 131.943 127.312 128.634C124.868 125.724 120.523 124.826 120.523 124.826Z" fill="#455A64"/>
<path d="M129.113 146.743C129.113 146.743 129.077 146.901 128.992 147.207C128.892 147.507 128.812 147.978 128.566 148.546C128.165 149.718 127.339 151.359 126.064 153.33C124.78 155.296 123.011 157.572 120.761 160.035C118.504 162.489 115.799 165.161 112.655 167.941C109.523 170.734 105.962 173.645 102.043 176.641C100.081 178.137 98.028 179.652 95.8818 181.17C95.3424 181.545 94.7994 181.924 94.2522 182.305C93.711 182.678 93.1452 183.072 92.5548 183.405C91.3704 184.074 90.1044 184.638 88.7712 185.055C86.1198 185.913 83.121 186.086 80.3046 185.214C79.9458 185.131 79.6176 184.955 79.2714 184.829C78.9306 184.689 78.5802 184.566 78.2556 184.376C77.6022 184.015 76.995 183.58 76.416 183.106C75.2772 182.145 74.2368 180.971 73.68 179.516C72.6702 176.656 71.949 173.661 71.3094 170.608C70.7292 167.543 70.1904 164.423 69.7884 161.247C68.6742 152.774 68.04 144.521 67.6836 136.704L67.6776 136.576L67.8036 136.551C73.3182 135.421 78.6012 134.338 83.6058 133.313L83.7396 133.285L83.7708 133.418C86.1072 143.308 88.1856 152.109 89.922 159.458L89.7396 159.41C95.0766 153.669 99.36 149.062 102.317 145.881C103.793 144.303 104.936 143.08 105.718 142.245C106.103 141.837 106.399 141.525 106.604 141.308C106.805 141.099 106.913 140.997 106.913 140.997C106.913 140.997 106.82 141.112 106.626 141.329C106.426 141.551 106.138 141.87 105.761 142.286C104.989 143.13 103.86 144.366 102.402 145.96C99.462 149.157 95.2026 153.787 89.8956 159.555L89.76 159.703L89.7132 159.508C87.9588 152.163 85.8582 143.368 83.4966 133.483L83.661 133.588C78.6576 134.62 73.3764 135.709 67.863 136.846L67.983 136.693C68.346 144.496 68.9844 152.747 70.0968 161.205C70.4988 164.377 71.0352 167.49 71.613 170.547C72.249 173.59 72.9672 176.575 73.9656 179.41C74.4912 180.79 75.4968 181.935 76.6086 182.874C77.1726 183.337 77.769 183.765 78.3996 184.113C78.7086 184.296 79.0506 184.416 79.3842 184.552C79.722 184.675 80.043 184.848 80.3928 184.93C83.1402 185.783 86.073 185.621 88.6842 184.78C89.9964 184.372 91.2462 183.818 92.4138 183.16C93.0018 182.83 93.5382 182.458 94.0938 182.076C94.6404 181.696 95.1834 181.32 95.7222 180.945C97.8678 179.434 99.9222 177.925 101.884 176.435C105.806 173.452 109.37 170.554 112.507 167.776C115.656 165.011 118.366 162.355 120.631 159.917C122.887 157.471 124.665 155.213 125.96 153.263C127.246 151.309 128.086 149.683 128.504 148.524C128.76 147.961 128.849 147.495 128.959 147.198C129.057 146.896 129.113 146.743 129.113 146.743Z" fill="#263238"/>
<path d="M92.6928 171.439C92.637 171.426 92.8224 170.674 92.919 169.44C92.979 168.824 92.9694 168.087 92.9262 167.272C92.8602 166.459 92.7234 165.571 92.4912 164.659C92.025 162.83 91.239 161.293 90.6042 160.233C89.9598 159.174 89.4822 158.566 89.5254 158.532C89.5422 158.518 89.6754 158.659 89.9028 158.925C90.1356 159.187 90.4386 159.595 90.7908 160.114C91.4814 161.157 92.3166 162.711 92.7936 164.58C93.0318 165.512 93.1626 166.422 93.2136 167.254C93.2418 168.086 93.228 168.838 93.1392 169.461C93.0642 170.084 92.9646 170.584 92.8674 170.921C92.7744 171.261 92.7138 171.444 92.6928 171.439Z" fill="#263238"/>
<path d="M90.5358 100.625C90.5076 100.708 90.1818 100.672 89.6838 100.57C89.1852 100.472 88.5168 100.32 87.7728 100.262C87.0282 100.2 86.3628 100.254 85.905 100.374C85.437 100.483 85.2402 100.672 85.164 100.641C85.1274 100.624 85.1268 100.521 85.2216 100.38C85.3146 100.242 85.4976 100.087 85.746 99.9614C86.2422 99.7034 87.0096 99.569 87.8226 99.6386C88.6398 99.7022 89.343 99.9392 89.8176 100.149C90.2946 100.362 90.5634 100.545 90.5358 100.625Z" fill="#263238"/>
<g opacity="0.3">
<path d="M114.611 197.018C114.611 197.018 107.673 196.167 103.941 195.59C101.901 195.274 98.7954 194.947 98.208 194.377C97.4778 193.669 97.4826 192.49 97.4052 191.475C96.0822 174.167 102.032 155.444 120.425 144.278L125.116 145.511L124.813 156.787L114.611 197.018Z" fill="black"/>
</g>
<path d="M223.042 62.1252C225.396 62.3358 227.762 60.5532 228.208 58.2324C228.654 55.9116 227.118 53.379 224.854 52.7016C226.278 51.1704 226.583 48.708 225.578 46.8744C224.573 45.0408 222.333 43.9752 220.276 44.352C220.14 42.2922 218.86 40.3452 217.022 39.4038C215.185 38.4624 212.856 38.5614 211.105 39.6552C208.778 37.7562 205.101 37.7724 202.791 39.6912C200.778 39.3696 198.619 40.4898 197.722 42.321C196.825 44.1516 197.264 46.545 198.752 47.9382" fill="#263238"/>
<path d="M201.871 44.4738L202.93 44.4492C213.59 44.2008 222.655 52.1784 223.759 62.7846C224.786 72.6492 225.795 83.5608 225.853 88.8642C225.973 99.846 215.033 101.809 215.033 101.809L216.269 114.977L189.605 114.773L186.133 66.993C184.885 55.6158 190.464 45.4074 201.871 44.4738Z" fill="#FFBF9D"/>
<path d="M215.047 101.806C215.047 101.806 207.391 102.376 199.909 97.9165C199.909 97.9165 204.37 105.92 215.302 104.676L215.047 101.806Z" fill="#FF9A6C"/>
<path d="M220.406 74.6996C220.455 75.527 219.794 76.25 218.931 76.3166C218.07 76.3826 217.331 75.7682 217.282 74.9408C217.234 74.1134 217.894 73.3898 218.755 73.3226C219.618 73.256 220.357 73.8722 220.406 74.6996Z" fill="#263238"/>
<path d="M221.524 68.2111C221.335 68.4205 220.127 67.5685 218.44 67.6123C216.754 67.6315 215.536 68.5285 215.348 68.3263C215.256 68.2369 215.446 67.8631 215.975 67.4581C216.497 67.0549 217.393 66.6535 218.444 66.6337C219.496 66.6151 220.388 66.9811 220.906 67.3651C221.434 67.7515 221.618 68.1169 221.524 68.2111Z" fill="#263238"/>
<path d="M205.879 74.6994C205.927 75.5268 205.267 76.2498 204.404 76.3158C203.543 76.3824 202.804 75.7674 202.755 74.94C202.706 74.1132 203.367 73.389 204.229 73.3224C205.091 73.2552 205.83 73.872 205.879 74.6994Z" fill="#263238"/>
<path d="M204.949 68.9117C204.759 69.1205 203.549 68.2698 201.863 68.3136C200.178 68.3334 198.96 69.2298 198.772 69.0276C198.68 68.9382 198.868 68.5644 199.4 68.1594C199.921 67.7562 200.817 67.3554 201.868 67.335C202.919 67.3158 203.812 67.6824 204.33 68.0664C204.856 68.4528 205.042 68.8181 204.949 68.9117Z" fill="#263238"/>
<path d="M211.363 81.2809C211.352 81.1849 212.397 80.9791 214.091 80.7223C214.52 80.6683 214.927 80.5729 214.992 80.2771C215.086 79.9633 214.895 79.5031 214.675 79.0069C214.246 77.9743 213.796 76.8913 213.325 75.7561C211.446 71.1265 210.076 67.3165 210.263 67.2421C210.451 67.1683 212.125 70.8607 214.003 75.4897C214.456 76.6315 214.888 77.7199 215.3 78.7609C215.474 79.2469 215.768 79.7959 215.563 80.4463C215.454 80.7709 215.143 81.0121 214.869 81.0931C214.595 81.1837 214.352 81.1939 214.14 81.2113C212.432 81.3439 211.372 81.3763 211.363 81.2809Z" fill="#263238"/>
<path d="M205.306 65.4283C205.093 65.8615 203.636 65.4313 201.855 65.4151C200.074 65.3587 198.582 65.7295 198.409 65.2885C198.334 65.0785 198.641 64.6867 199.275 64.3291C199.903 63.9721 200.865 63.6847 201.933 63.7051C203 63.7279 203.935 64.0531 204.529 64.4359C205.128 64.8181 205.4 65.2219 205.306 65.4283Z" fill="#263238"/>
<path d="M221.444 61.2523C221.097 61.6435 219.696 61.2781 218.021 61.2991C216.346 61.2703 214.934 61.6285 214.599 61.2355C214.451 61.0441 214.666 60.6553 215.276 60.2779C215.878 59.9023 216.893 59.5825 218.044 59.5855C219.195 59.5891 220.201 59.9131 220.792 60.2917C221.393 60.6721 221.596 61.0621 221.444 61.2523Z" fill="#263238"/>
<path d="M222.586 57.7747C222.586 57.7747 219.53 50.9671 216.178 49.4395C212.119 47.5909 210.494 52.0363 206.645 51.0565C202.795 50.0767 198.92 48.3025 195.08 51.3499C190.877 54.6859 192.935 56.9095 192.784 61.7863C192.173 81.5599 188.697 87.2287 187.454 77.9509C187.318 76.9345 184.471 76.1899 183.951 71.8939C183.277 66.3229 182.905 59.5489 184.058 55.5577C185.031 52.1935 186.881 49.8415 190.237 47.2177C195.533 43.0765 202.935 42.8173 207.975 43.2061C213.014 43.5955 222.843 49.1551 222.586 57.7747Z" fill="#263238"/>
<path d="M188.146 77.636C188.038 75.9428 186.547 74.6396 184.862 74.8394C182.819 75.0818 180.568 76.2973 180.802 80.5249C181.216 88.0249 188.66 86.0612 188.662 85.8458C188.662 85.6994 188.348 80.7734 188.146 77.636Z" fill="#FFBF9D"/>
<path d="M186.874 83.1144C186.839 83.0922 186.748 83.2134 186.533 83.3268C186.323 83.4372 185.957 83.5254 185.557 83.4006C184.748 83.154 184.012 81.933 183.901 80.583C183.844 79.902 183.952 79.2438 184.164 78.6924C184.363 78.1308 184.696 77.7282 185.091 77.6352C185.483 77.5212 185.779 77.7444 185.882 77.9502C185.994 78.1542 185.955 78.3066 185.995 78.3174C186.017 78.3354 186.149 78.1824 186.072 77.8764C186.033 77.7294 185.935 77.5572 185.751 77.4228C185.563 77.2866 185.294 77.2266 185.018 77.2722C184.442 77.3442 183.95 77.9052 183.718 78.51C183.453 79.1196 183.316 79.86 183.38 80.625C183.512 82.1334 184.364 83.5056 185.465 83.7582C186.001 83.8668 186.432 83.6832 186.65 83.4942C186.87 83.2962 186.9 83.1264 186.874 83.1144Z" fill="#FF9A6C"/>
<path d="M187.954 63.0906C188.944 63.7332 189.99 64.395 191.167 64.4844C192.344 64.5732 193.672 63.8676 193.843 62.6994C193.919 62.1744 193.778 61.5714 194.111 61.1598C194.51 60.6684 195.27 60.8016 195.9 60.8538C198.088 61.0344 200.581 58.5648 201.087 56.4288C201.663 57.249 202.888 57.4728 203.717 56.91C204.547 56.3478 204.847 56.0304 205.489 55.26C206.13 54.4902 207.04 53.7936 208.035 53.9112C208.592 53.9772 209.119 54.2952 209.676 54.2328C210.66 54.1224 211.114 52.9572 211.24 51.975C211.367 50.9934 211.456 49.8492 212.278 49.2978C213.04 48.7866 214.049 49.0488 214.96 49.161C215.87 49.2732 217.037 49.0332 217.249 48.1404C217.36 47.6724 217.148 47.187 216.881 46.7868C215.67 44.9742 213.102 44.2164 211.1 45.0804C210.308 42.6174 207.944 40.7412 205.365 40.53C202.786 40.3182 200.148 41.784 198.965 44.0856C197.345 42.6834 195.026 42.1332 192.949 42.6582C190.872 43.1832 189.093 44.769 188.333 46.773C186.497 46.3356 184.432 47.0898 183.31 48.609C182.189 50.1282 182.075 52.323 183.034 53.9502C181.702 54.7524 180.578 56.1198 180.587 57.6744C180.595 59.2284 182.144 60.741 183.634 60.2976C183.056 61.521 183.588 63.1512 184.775 63.7998C185.963 64.4484 187.622 64.014 188.339 62.8662" fill="#263238"/>
<path d="M211.71 47.2771C211.716 47.2777 211.717 47.3239 211.712 47.4145C211.704 47.5045 211.702 47.6413 211.673 47.8165C211.613 48.1645 211.485 48.6811 211.162 49.2751C210.837 49.8607 210.327 50.5399 209.539 51.0883C208.768 51.6427 207.701 52.0753 206.485 52.0363L206.608 51.8671C206.856 52.5037 206.81 53.2753 206.506 53.9425C206.219 54.6211 205.756 55.2271 205.265 55.8181C205.013 56.1025 204.796 56.4349 204.445 56.6989C204.103 56.9527 203.69 57.1045 203.266 57.1681C202.422 57.2959 201.46 57.0565 200.83 56.3587L201.108 56.2723C200.952 57.7687 200.138 59.2813 198.811 60.2227C198.11 60.7549 197.234 61.0909 196.365 61.0879C195.496 61.0999 194.683 60.8635 193.924 60.6115L194.122 60.5185C193.741 61.4611 193.139 62.2711 192.4 62.8765C191.674 63.4807 190.698 63.8473 189.802 63.6499C188.021 63.3163 186.812 61.8703 186.542 60.4885L186.715 60.5635C185.847 61.0633 184.904 61.1311 184.144 61.0027C183.374 60.8803 182.764 60.5611 182.327 60.2425C181.889 59.9173 181.626 59.5795 181.467 59.3449C181.321 59.1007 181.259 58.9651 181.268 58.9609C181.305 58.9291 181.53 59.5255 182.401 60.1393C182.835 60.4321 183.431 60.7225 184.172 60.8227C184.903 60.9301 185.795 60.8443 186.596 60.3667L186.735 60.2839L186.769 60.4423C187.037 61.7311 188.2 63.0793 189.851 63.3697C190.663 63.5401 191.521 63.2125 192.209 62.6407C192.899 62.0701 193.472 61.2895 193.827 60.4039L193.883 60.2635L194.026 60.3103C194.773 60.5563 195.557 60.7771 196.361 60.7639C197.165 60.7621 197.95 60.4633 198.619 59.9593C199.873 59.0683 200.636 57.6529 200.792 56.2363L200.831 55.8799L201.071 56.1493C201.603 56.7463 202.463 56.9767 203.222 56.8633C203.603 56.8087 203.969 56.6749 204.268 56.4565C204.559 56.2465 204.785 55.9177 205.04 55.6309C205.531 55.0495 205.982 54.4663 206.255 53.8351C206.545 53.2111 206.588 52.5325 206.375 51.9559L206.309 51.7783L206.498 51.7867C207.644 51.8371 208.672 51.4441 209.426 50.9239C210.196 50.4109 210.706 49.7653 211.041 49.2061C211.697 48.0553 211.656 47.2609 211.71 47.2771Z" fill="#455A64"/>
<path d="M157.723 113.8C157.723 113.8 129.509 123.736 121.348 127.841C114.973 131.047 110.933 142.681 120.744 147.529C128.06 151.145 167.663 144.235 167.663 144.235L157.723 113.8Z" fill="#FFBF9D"/>
<path d="M243.852 212.58L172.168 209.867L169.572 234.269L166.7 283.217L203.293 283.372C203.308 283.164 207.856 255.857 207.856 255.857L209.924 255.316L209.732 283.372H244.028C245.829 260.155 246.858 240.655 246.921 238.82C247.42 224.316 243.852 212.58 243.852 212.58Z" fill="#263238"/>
<path d="M205.276 240.649C205.262 240.682 205.646 240.885 206.365 241.203C207.086 241.506 208.145 241.971 209.568 242.174C210.278 242.272 211.081 242.276 211.917 242.091C212.747 241.908 213.626 241.513 214.322 240.808C215.018 240.102 215.445 239.137 215.701 238.143C215.959 237.139 216.087 236.103 216.253 235.047C216.888 230.815 217.276 226.959 217.478 224.163C217.58 222.766 217.639 221.633 217.664 220.849C217.687 220.066 217.681 219.631 217.644 219.629C217.606 219.627 217.543 220.056 217.454 220.834C217.357 221.725 217.238 222.826 217.097 224.128C216.797 226.909 216.351 230.747 215.718 234.967C215.395 237.054 215.204 239.173 213.963 240.462C212.723 241.728 210.932 241.932 209.611 241.794C208.247 241.649 207.178 241.249 206.44 241.007C205.703 240.751 205.291 240.613 205.276 240.649Z" fill="#455A64"/>
<path d="M212.111 220.597C212.118 220.573 211.94 220.471 211.58 220.464C211.225 220.453 210.69 220.583 210.174 220.983C209.68 221.38 209.167 222.077 209.184 222.997C209.182 223.93 209.947 224.816 210.909 225.116C211.863 225.443 213.004 225.182 213.554 224.429C214.112 223.697 214.111 222.831 213.947 222.219C213.767 221.592 213.413 221.17 213.12 220.969C212.825 220.762 212.622 220.739 212.614 220.763C212.547 220.835 213.349 221.161 213.575 222.307C213.676 222.848 213.618 223.574 213.167 224.117C212.735 224.671 211.867 224.865 211.077 224.604C210.286 224.347 209.701 223.677 209.68 222.975C209.638 222.271 210.02 221.651 210.421 221.275C211.282 220.483 212.121 220.695 212.111 220.597Z" fill="#455A64"/>
<path d="M172.168 232.801C172.166 232.838 172.477 232.871 173.041 232.9C173.605 232.937 174.425 232.917 175.433 232.826C177.446 232.651 180.222 232.043 183.032 230.723C185.837 229.392 188.072 227.635 189.487 226.192C190.198 225.472 190.734 224.852 191.063 224.392C191.401 223.939 191.572 223.678 191.542 223.655C191.468 223.595 190.689 224.567 189.223 225.916C187.762 227.267 185.545 228.932 182.801 230.234C180.053 231.525 177.359 232.178 175.388 232.447C173.414 232.722 172.168 232.705 172.168 232.801Z" fill="#455A64"/>
<path d="M245.297 208.601C243.89 205.4 244.151 205.105 244.151 205.105L240.166 170.228L236.338 136.3L233.233 111.187L215.301 107.347C215.301 107.347 213.236 113.068 204.568 113.241C194.582 113.44 188.859 104.511 188.859 104.511L160.186 110.667L170.969 184.624L172.262 204.545C172.262 204.545 170.121 207.768 170.121 211.226C170.121 214.684 169.981 216.988 169.981 216.988C196.595 224.3 223.007 230.632 247.309 223.553C247.309 223.555 246.703 211.803 245.297 208.601Z" fill="#455A64"/>
<path d="M226.691 109.878C226.691 109.878 237.027 111.032 240.694 114.925C244.361 118.818 256.084 138.078 256.084 138.078L239.057 161.372L231.169 150.608L226.691 109.878Z" fill="#455A64"/>
<path d="M234.571 121.932C234.715 121.918 236.343 134.72 238.208 150.523C240.074 166.331 241.47 179.154 241.327 179.168C241.184 179.181 239.555 166.382 237.689 150.573C235.824 134.771 234.428 121.946 234.571 121.932Z" fill="#263238"/>
<path d="M160.186 110.667L137.227 120.857L145.534 144.098L167.663 147.605L160.186 110.667Z" fill="#455A64"/>
<path d="M163.346 126.073C163.499 126.056 164.594 135.124 165.792 146.323C166.99 157.525 167.837 166.617 167.684 166.634C167.531 166.65 166.436 157.585 165.238 146.382C164.04 135.183 163.193 126.089 163.346 126.073Z" fill="#263238"/>
<g opacity="0.3">
<path d="M169.006 243.91C181.471 239.428 188.378 230.597 193.953 221.231C199.528 211.865 200.325 198.675 196.756 188.376C196.756 188.376 170.995 213.296 170.812 213.845C170.629 214.395 169.006 243.91 169.006 243.91Z" fill="black"/>
</g>
<g opacity="0.3">
<path d="M204.07 112.918C203.762 115.448 205.175 117.888 206.909 119.756C208.644 121.625 210.743 123.147 212.324 125.147C214.128 127.43 215.161 130.212 216.165 132.943C218.263 138.645 220.36 144.347 222.458 150.049C224.264 154.96 226.095 159.919 228.959 164.298C231.824 168.677 235.857 172.488 240.839 174.089L237.056 141.964L217.104 109.877L204.07 112.918Z" fill="black"/>
</g>
<path d="M224.744 113.198C224.744 112.794 225.064 97.9141 224.066 96.2977C223.069 94.6819 222.27 93.1663 222.071 91.6513C222.071 91.6513 222.615 90.7675 221.623 90.2137C220.631 89.6599 219.058 91.0099 219.024 93.3979C218.99 95.7859 219.263 99.8707 219.263 99.8707C219.263 99.8707 208.286 93.6403 205.277 93.4669C202.267 93.2941 197.753 92.7403 197.514 94.1941C197.275 95.6479 197.48 95.9941 199.053 96.5479C200.626 97.1017 203.122 97.4827 205.585 98.3131C208.047 99.1441 209.175 99.7081 209.175 99.7081C209.175 99.7081 203.567 98.0569 202.336 99.7081C201.104 101.359 201.275 102.847 202.062 103.644C202.062 103.644 200.386 104.336 200.557 106.17C200.728 108.005 201.549 108.455 201.549 108.455C201.549 108.455 199.907 109.701 200.694 111.294C201.481 112.886 203.327 111.882 205.071 113.682C206.815 115.482 211.158 119.705 212.834 120.64C214.51 121.575 218.339 121.955 218.339 121.955L224.744 113.198Z" fill="#FFBF9D"/>
<path d="M224.744 113.198C224.747 113.199 224.714 113.25 224.646 113.35C224.57 113.457 224.468 113.603 224.335 113.792C224.05 114.19 223.638 114.765 223.105 115.51C222.011 117.02 220.421 119.218 218.405 122.003L218.378 122.041L218.332 122.036C217.574 121.956 216.785 121.844 215.965 121.69C215.146 121.534 214.292 121.344 213.439 121.021C213.009 120.868 212.593 120.629 212.213 120.353C211.826 120.083 211.456 119.783 211.079 119.477C210.332 118.858 209.585 118.191 208.828 117.493C208.07 116.794 207.302 116.063 206.524 115.301C206.137 114.917 205.746 114.528 205.349 114.134C204.958 113.727 204.575 113.338 204.085 113.069C203.603 112.789 203.05 112.652 202.481 112.526C201.928 112.4 201.26 112.268 200.843 111.744C200.435 111.257 200.259 110.569 200.414 109.935C200.575 109.302 200.971 108.77 201.472 108.353L201.488 108.569C201.053 108.268 200.842 107.83 200.674 107.378C200.521 106.92 200.435 106.449 200.419 105.95C200.401 105.449 200.551 104.934 200.839 104.507C201.134 104.083 201.53 103.745 202.012 103.52L201.967 103.739C201.265 103.037 201.159 101.917 201.482 101.02C201.634 100.561 201.867 100.133 202.146 99.741C202.274 99.5412 202.478 99.3348 202.701 99.2202C202.924 99.0966 203.163 99.0174 203.404 98.9586C204.373 98.7546 205.357 98.8386 206.324 98.9628C207.294 99.0984 208.255 99.3042 209.216 99.573L209.113 99.8358C207.671 99.1734 206.111 98.6148 204.525 98.1318C202.93 97.6554 201.263 97.344 199.601 96.8742C199.006 96.6858 198.413 96.5148 197.859 96.1596C197.582 95.9808 197.354 95.661 197.312 95.3208C197.261 94.9878 197.303 94.6734 197.344 94.368C197.366 94.2282 197.38 94.041 197.482 93.8784C197.579 93.7224 197.717 93.609 197.858 93.5208C198.147 93.354 198.455 93.2718 198.758 93.2124C199.369 93.1002 199.977 93.0798 200.579 93.0768C201.783 93.078 202.967 93.1698 204.138 93.2508C204.724 93.2988 205.298 93.3048 205.898 93.4206C206.188 93.4854 206.467 93.5736 206.75 93.6486L207.573 93.9348C209.733 94.7556 211.754 95.7504 213.707 96.7398C215.657 97.7364 217.531 98.7462 219.328 99.759L219.136 99.8796C219.001 97.5222 218.861 95.2662 218.922 93.0828C219.004 91.995 219.418 90.8748 220.327 90.2442C220.555 90.0966 220.822 89.9934 221.102 89.9832C221.381 89.967 221.668 90.0822 221.874 90.2442C222.089 90.4038 222.269 90.6456 222.314 90.9234C222.361 91.2018 222.296 91.4688 222.164 91.7088L222.179 91.6374C222.416 93.2994 223.246 94.7316 224.021 96.0336C224.116 96.1878 224.231 96.3714 224.282 96.5622C224.347 96.7488 224.38 96.9348 224.419 97.1196C224.486 97.4898 224.534 97.8552 224.57 98.2152C224.646 98.9358 224.69 99.6348 224.726 100.311C224.856 103.015 224.854 105.35 224.854 107.259C224.848 109.168 224.821 110.653 224.798 111.661C224.785 112.156 224.774 112.538 224.766 112.807C224.756 113.065 224.744 113.198 224.744 113.198C224.744 113.198 224.734 113.066 224.734 112.807C224.734 112.537 224.734 112.155 224.735 111.66C224.734 110.641 224.733 109.16 224.731 107.26C224.713 105.352 224.697 103.018 224.551 100.321C224.512 99.6474 224.464 98.9508 224.385 98.2362C224.347 97.8792 224.297 97.5174 224.23 97.1562C224.153 96.786 224.08 96.4536 223.852 96.1368C223.069 94.8312 222.217 93.39 221.962 91.6668L221.957 91.6326L221.978 91.5954C222.079 91.4112 222.136 91.173 222.096 90.9624C222.059 90.7488 221.923 90.5616 221.738 90.4242C221.371 90.1158 220.855 90.165 220.451 90.4374C219.638 91.0008 219.232 92.0622 219.161 93.1008C219.108 95.2434 219.252 97.518 219.392 99.8634L219.406 100.1L219.2 99.984C217.406 98.9784 215.531 97.9728 213.584 96.9816C211.635 95.9976 209.614 95.0076 207.476 94.1982L206.666 93.9174C206.391 93.8454 206.117 93.7584 205.84 93.6972C205.298 93.5904 204.7 93.5802 204.118 93.534C202.947 93.4542 201.766 93.363 200.579 93.363C199.987 93.366 199.389 93.3882 198.812 93.4944C198.257 93.6072 197.611 93.8046 197.627 94.4094C197.587 94.7034 197.552 95.0028 197.595 95.2752C197.634 95.5488 197.787 95.7648 198.022 95.9244C198.502 96.2346 199.106 96.4188 199.682 96.5988C201.318 97.062 202.996 97.377 204.605 97.857C206.214 98.349 207.759 98.9016 209.239 99.5826L209.135 99.8454C208.195 99.5814 207.237 99.3756 206.285 99.2418C205.336 99.117 204.367 99.0396 203.465 99.2298C203.022 99.3366 202.601 99.5178 202.371 99.9012C202.104 100.275 201.884 100.679 201.743 101.105C201.441 101.944 201.547 102.937 202.159 103.55L202.294 103.685L202.114 103.769C201.7 103.963 201.319 104.281 201.059 104.657C200.802 105.04 200.668 105.493 200.683 105.947C200.696 106.402 200.779 106.871 200.921 107.293C201.064 107.706 201.299 108.126 201.611 108.343L201.763 108.448L201.627 108.559C201.176 108.931 200.798 109.439 200.661 109.994C200.521 110.546 200.679 111.158 201.034 111.584C201.38 112.03 201.973 112.159 202.534 112.287C203.103 112.415 203.69 112.559 204.202 112.859C204.719 113.143 205.138 113.573 205.516 113.969C205.91 114.364 206.299 114.753 206.684 115.138C207.458 115.901 208.222 116.633 208.975 117.334C209.728 118.033 210.47 118.7 211.209 119.319C211.958 119.92 212.671 120.541 213.508 120.843C214.339 121.162 215.185 121.357 215.997 121.516C216.81 121.674 217.598 121.79 218.348 121.874L218.275 121.907C220.312 119.149 221.92 116.972 223.026 115.476C223.576 114.74 224 114.171 224.294 113.777C224.435 113.591 224.544 113.448 224.624 113.342C224.7 113.246 224.744 113.198 224.744 113.198Z" fill="#FF9A6C"/>
<path d="M260.32 147.937C259.223 145.841 256.746 141.478 255.552 138.806L247.705 141.658C247.705 141.658 225.477 111.632 224.767 111.632C224.057 111.632 214.403 120.583 214.403 120.583C214.829 121.009 234.843 166.877 242.509 171.846C250.175 176.815 255.889 179.97 260.005 172.872C264.122 165.774 265.147 157.165 260.32 147.937Z" fill="#FFBF9D"/>
<path d="M257.755 155.135C257.737 155.144 257.607 154.936 257.387 154.553C257.17 154.168 256.846 153.617 256.436 152.943C255.619 151.593 254.41 149.777 252.943 147.868C251.476 145.958 250.051 144.305 249.015 143.111C248.527 142.549 248.116 142.076 247.787 141.698C247.499 141.362 247.348 141.17 247.362 141.156C247.376 141.143 247.556 141.309 247.87 141.622C248.183 141.934 248.627 142.396 249.166 142.976C250.243 144.137 251.696 145.775 253.171 147.694C254.645 149.612 255.835 151.458 256.611 152.84C257 153.531 257.298 154.099 257.485 154.501C257.676 154.901 257.773 155.126 257.755 155.135Z" fill="#FF9A6C"/>
<path d="M212.54 88.2708C212.341 88.4178 211.513 87.5652 210.199 87.1062C208.897 86.6136 207.716 86.7348 207.658 86.4942C207.632 86.385 207.915 86.1954 208.44 86.0952C208.96 85.9932 209.722 86.0166 210.494 86.2962C211.265 86.5776 211.864 87.0498 212.197 87.462C212.534 87.8766 212.629 88.2036 212.54 88.2708Z" fill="#263238"/>
<path d="M232.604 208.396C232.609 208.405 232.514 208.459 232.33 208.556C232.143 208.647 231.877 208.807 231.509 208.955C230.78 209.266 229.678 209.629 228.268 209.827C226.859 210.023 225.151 210.045 223.289 209.803C221.425 209.566 219.41 209.097 217.342 208.474C213.21 207.211 209.552 205.826 206.935 204.755C205.627 204.22 204.578 203.761 203.858 203.434C203.523 203.278 203.25 203.15 203.033 203.049C202.846 202.958 202.75 202.906 202.753 202.896C202.757 202.887 202.861 202.922 203.056 202.996C203.278 203.084 203.558 203.195 203.902 203.331C204.672 203.637 205.725 204.055 207.01 204.566C209.642 205.586 213.306 206.939 217.425 208.198C219.484 208.818 221.48 209.291 223.324 209.539C225.166 209.793 226.85 209.792 228.242 209.625C229.637 209.455 230.733 209.128 231.469 208.85C232.197 208.561 232.592 208.372 232.604 208.396Z" fill="#263238"/>
<path d="M178.313 151.15C168.292 144.4 156.374 141.989 148.562 141.985C141.245 141.98 130.478 143.126 120.729 148.617C114.674 152.027 109.842 156.688 106.367 162.47C102.25 169.32 100.019 177.797 99.735 187.666C99.6924 189.146 100.238 190.548 101.272 191.613C102.311 192.683 103.705 193.273 105.197 193.274L124.381 193.287C127.087 193.289 129.415 191.271 129.796 188.593C130.651 182.578 134.228 172.451 148.584 172.213C159.525 172.037 164.027 179.953 165.458 183.367C167.786 188.922 167.191 195.508 163.864 200.984C158.754 209.398 149.362 210.68 144.219 210.695C138.304 210.713 133.489 215.511 133.485 221.391L133.471 242.034C133.469 245.049 135.92 247.503 138.935 247.505L157.626 247.517C160.64 247.519 163.095 245.068 163.097 242.054L163.1 237.716C163.1 237.613 163.165 237.523 163.265 237.487C167.5 236.005 175.71 232.42 183.107 225.076C192.55 215.699 197.343 203.593 197.353 189.092C197.366 168.341 187.006 157.005 178.313 151.15Z" fill="#00FF7F"/>
<path d="M149.208 252.709L147.573 252.708C139.756 252.702 133.393 259.057 133.387 266.875C133.382 274.692 139.737 281.055 147.554 281.061L149.189 281.062C157.006 281.067 163.37 274.712 163.375 266.895C163.38 259.078 157.025 252.714 149.208 252.709Z" fill="#00FF7F"/>
<g opacity="0.3">
<path d="M196.632 175.835C196.381 173.722 195.83 171.699 195.051 169.756C191.309 160.419 182.527 154.056 172.532 152.92L124.301 147.434C129.545 152.795 136.393 153.862 143.653 155.744C150.912 157.625 158.728 160.447 166.062 162.008C168.416 162.509 170.848 163.134 172.678 164.696C174.464 166.219 175.461 168.447 176.402 170.597C177.796 173.785 179.191 176.972 180.586 180.16C182.178 183.8 184.296 187.91 188.583 188.144C190.313 188.239 192.01 187.591 193.325 186.464C196.429 183.802 197.085 179.656 196.632 175.835Z" fill="black"/>
</g>
<path d="M195.945 162.916C195.572 162.259 188.242 153.296 184.597 149.821C182.244 147.577 178.698 146.03 176.475 145.211C176.475 145.211 139.774 131.958 137.227 130.664L120.744 147.529C126.482 149.125 165.442 158.505 175.054 160.615C176.735 162.575 178.426 164.183 178.426 164.183L181.22 170.747C181.22 170.747 181.542 173.136 181.34 175.699C181.139 178.261 183.217 177.262 183.217 177.262C183.217 177.262 183.119 178.854 183.254 181.149C183.256 181.172 183.257 181.195 183.259 181.217C183.395 182.933 185.861 183.146 186.386 181.506L188.279 175.589C188.279 175.589 188.032 180.974 187.931 183.971C187.912 184.514 188.008 184.961 188.175 185.329C188.9 186.918 191.265 186.622 191.668 184.922L193.886 175.561L193.168 169.828L195.029 175.067C195.029 175.067 195.543 177.867 195.439 181.801C195.398 183.374 195.928 184.043 196.58 184.28C197.671 184.677 198.823 183.808 198.918 182.651L199.627 173.977C199.627 173.977 196.318 163.573 195.945 162.916Z" fill="#FFBF9D"/>
<path d="M134.859 130.009C134.875 129.941 135.917 130.108 137.558 130.564C139.201 131.014 141.426 131.78 143.833 132.736C146.242 133.693 148.393 134.616 149.951 135.278C151.509 135.943 152.471 136.36 152.444 136.435C152.419 136.505 151.406 136.217 149.807 135.644C148.207 135.074 146.029 134.207 143.628 133.253C141.227 132.301 139.042 131.482 137.441 130.939C135.844 130.391 134.84 130.091 134.859 130.009Z" fill="#FF9A6C"/>
</svg>
