<svg width="80" height="58" viewBox="0 0 80 58" fill="none" xmlns="http://www.w3.org/2000/svg">
<path d="M79.5146 29.29C79.4873 32.3572 78.6982 35.3082 77.2352 37.8283C75.1146 41.4813 71.6351 44.2776 67.6844 45.4879C64.8514 46.3555 62.1007 46.3335 59.887 46.3223C59.5473 46.3223 59.213 46.3223 58.8788 46.3223C58.4788 46.3223 58.0678 46.3279 57.6623 46.3389H57.2898C56.6486 46.3555 55.9856 46.3666 55.2952 46.3666C54.4897 46.3666 53.6568 46.35 52.802 46.3003C52.0842 47.1569 51.3664 48.019 50.643 48.8756C49.4102 50.3456 48.1828 51.8157 46.9499 53.2856C45.717 54.7557 44.6869 56.3197 42.9882 57.1984C41.9745 57.7234 40.8347 58.0107 39.695 57.9997C38.2703 57.9886 36.8676 57.5134 35.695 56.7065C34.7525 56.0544 34.1333 55.1757 33.41 54.3081C32.2812 52.9596 31.1524 51.6167 30.0237 50.2683C28.988 49.0303 27.947 47.7924 26.9113 46.5545C26.8401 46.4716 26.7688 46.3887 26.6976 46.3003C25.8538 46.35 25.0263 46.3666 24.2263 46.3666C23.5414 46.3666 22.8729 46.3555 22.2318 46.3445H21.8592C21.4482 46.3335 21.0427 46.3279 20.6373 46.3223C20.303 46.3223 19.9633 46.3223 19.629 46.3223C17.4208 46.3389 14.6701 46.3555 11.8317 45.4824C7.88093 44.2721 4.40143 41.4813 2.28086 37.8228C0.823312 35.3027 0.0342586 32.3516 0.00138154 29.2844C-0.0479342 24.482 1.22331 20.2211 3.77129 16.629C4.65897 15.38 5.68912 14.225 6.82338 13.1861C3.57402 12.6997 1.12468 9.83704 1.22331 6.44379C1.32742 2.8461 4.24801 0 7.79326 0C7.85901 0 7.91929 0 7.98504 0C27.651 0.563694 37.3826 12.8213 39.7607 16.314C42.1389 12.8268 51.8705 0.574747 71.5365 0.00552641C71.6022 0.00552641 71.6625 0.00552641 71.7282 0.00552641C75.2735 0.00552641 78.1941 2.85163 78.2982 6.44933C78.3914 9.84252 75.942 12.7052 72.6982 13.1915C73.8324 14.2305 74.857 15.38 75.7447 16.6345C78.2927 20.2267 79.564 24.4875 79.5146 29.29Z" fill="#FFFBF5"/>
<path d="M72.2926 19.1269C70.3584 16.4024 67.6077 14.236 64.5391 13.0313C62.7693 12.3349 60.8788 11.9426 58.9555 11.8486C58.9281 11.8486 58.9226 11.8155 58.9445 11.8044C62.3692 10.2846 66.5885 9.15179 71.6954 8.99704C72.9118 8.95837 73.9694 8.02437 74.0461 6.79751C74.1338 5.39933 73.0159 4.26089 71.657 4.29404C51.6403 4.86879 43.295 18.6295 42.8566 19.3757C42.4676 19.9062 42.1005 20.4478 41.7827 21.017C40.4566 23.3768 39.7662 26.0515 39.7553 28.671C39.7553 26.0515 39.0649 23.3768 37.7388 21.017C37.4209 20.4532 37.0538 19.9062 36.6648 19.3757C36.2209 18.613 27.8701 4.86879 7.86446 4.29404C6.50006 4.26089 5.38772 5.3938 5.4754 6.79751C5.55211 8.01884 6.60965 8.95837 7.82611 8.99704C12.933 9.15726 17.1522 10.2846 20.5824 11.8044C20.6043 11.8155 20.5989 11.8486 20.5714 11.8486C18.6481 11.9426 16.7522 12.3349 14.9824 13.0313C11.9193 14.236 9.16855 16.4024 7.23432 19.1269C5.21785 21.9675 4.22058 25.3718 4.25894 29.2458C4.28086 31.6 4.85072 33.7609 5.95759 35.6674C7.54117 38.403 10.1385 40.4865 13.0809 41.3929C15.3001 42.0726 17.492 42.0615 19.6125 42.045C19.9633 42.045 20.3139 42.045 20.6646 42.045C21.0865 42.045 21.5139 42.0505 21.9413 42.0615H22.3194C22.9441 42.0781 23.5797 42.0892 24.2263 42.0892C25.7167 42.0892 27.2565 42.0284 28.7797 41.7686C28.7907 41.7686 28.7962 41.7686 28.8017 41.7797C29.4757 42.5976 30.1497 43.4155 30.8237 44.239C32.062 45.7421 33.3004 47.2509 34.5442 48.754L35.9415 50.4506C36.4949 51.1193 36.9771 51.8322 37.7443 52.2854C38.3415 52.6391 39.032 52.838 39.7278 52.8436C41.1745 52.8546 42.2813 52.0699 43.1362 50.9701C43.432 50.5888 43.7553 50.2185 44.0621 49.8483C45.2293 48.4335 46.3965 47.0132 47.5636 45.5984C48.528 44.4268 49.4924 43.2552 50.4568 42.0836C50.5389 41.9841 50.6211 41.8847 50.7034 41.7797C50.7034 41.7742 50.7197 41.7686 50.7253 41.7686C52.2595 42.0339 53.8047 42.0947 55.3006 42.0947C55.9473 42.0947 56.5883 42.0836 57.2075 42.0726H57.5856C58.013 42.0615 58.4404 42.0505 58.8623 42.0505C59.213 42.0505 59.5637 42.0505 59.9144 42.0505C62.0349 42.0671 64.2322 42.0781 66.446 41.3983C69.383 40.4976 71.9803 38.4141 73.5694 35.6786C74.6707 33.7775 75.2461 31.6166 75.268 29.2568C75.3064 25.3773 74.3036 21.973 72.2926 19.138V19.1269ZM22.3961 37.3586H22.0125C21.5633 37.342 21.1194 37.3365 20.6756 37.3365C20.6043 37.3365 20.5331 37.3365 20.4619 37.3365C20.166 37.3365 19.8756 37.3365 19.5797 37.3365C17.7276 37.3531 15.9741 37.3586 14.4289 36.8888C12.5988 36.3307 10.9769 35.0154 9.97407 33.2911C9.28367 32.1029 8.92751 30.7269 8.91103 29.196C8.88367 26.3389 9.59055 23.8686 11.0206 21.857C12.4344 19.862 14.4453 18.2814 16.6755 17.4027C20.2317 16.0045 24.4948 16.2587 28.0839 18.088C30.4839 19.3093 32.4729 21.1717 33.684 23.327C34.9552 25.5873 35.399 28.229 34.9004 30.5832C34.3963 32.9761 32.8456 35.1259 30.8566 36.1925C28.4893 37.4636 25.5304 37.4083 22.3906 37.3531L22.3961 37.3586ZM38.9991 47.903L34.3908 41.9953V41.9621C34.3908 41.9621 39.7497 38.0549 39.7607 38.0549L45.0594 42.0284V42.056L40.5224 47.8975C40.1333 48.3948 39.3826 48.4003 38.9936 47.8975L38.9991 47.903ZM69.5474 33.2911C68.5446 35.0154 66.9227 36.3307 65.0925 36.8888C63.5528 37.3641 61.7939 37.3531 59.9418 37.3365C59.5747 37.3365 59.2075 37.3365 58.8404 37.3365C58.3965 37.3365 57.9527 37.342 57.5034 37.3531H57.1198C53.9801 37.4138 51.0211 37.4691 48.654 36.198C46.6649 35.1314 45.1142 32.9816 44.6101 30.5887C44.1115 28.2344 44.5553 25.5873 45.8265 23.3325C47.043 21.1772 49.0321 19.3148 51.4266 18.0935C53.4814 17.049 55.7554 16.5184 57.9965 16.5184C59.6678 16.5184 61.3172 16.8169 62.8349 17.4137C65.0652 18.2924 67.0761 19.873 68.4898 21.868C69.9145 23.8797 70.6269 26.3499 70.5994 29.2071C70.583 30.7324 70.2269 32.114 69.5365 33.3022L69.5474 33.2911ZM28.6812 30.34C27.6236 30.34 26.7633 29.4724 26.7633 28.4058C26.7633 25.7641 24.6317 23.6144 22.0125 23.6144C19.3933 23.6144 17.2618 25.7641 17.2618 28.4058C17.2618 29.4724 16.4016 30.34 15.344 30.34C14.2865 30.34 13.4261 29.4724 13.4261 28.4058C13.4261 23.6309 17.2783 19.7459 22.0125 19.7459C26.7469 19.7459 30.5989 23.6309 30.5989 28.4058C30.5989 29.4724 29.7387 30.34 28.6812 30.34ZM64.1884 30.34C63.1309 30.34 62.2706 29.4724 62.2706 28.4058C62.2706 25.7641 60.139 23.6144 57.5198 23.6144C54.9006 23.6144 52.7691 25.7641 52.7691 28.4058C52.7691 29.4724 51.9088 30.34 50.8513 30.34C49.7937 30.34 48.9334 29.4724 48.9334 28.4058C48.9334 23.6309 52.7855 19.7459 57.5198 19.7459C62.2542 19.7459 66.1062 23.6309 66.1062 28.4058C66.1062 29.4724 65.246 30.34 64.1884 30.34Z" fill="#0C003D"/>
</svg>
