<svg width="250" height="40" viewBox="0 0 250 40" fill="none" xmlns="http://www.w3.org/2000/svg">
<path d="M38.191 23.9196C36.516 33.1518 29.062 38.6072 19.598 38.6072C8.71025 38.6072 0 30.2143 0 19.3036C0 8.64465 8.54273 0 19.1793 0C19.3468 0 19.4305 0 19.598 0C28.6433 0 36.3485 5.37143 38.1074 14.1L34.0872 15.0232C31.6584 15.6107 29.1458 14.6036 27.8057 12.5054C26.0471 9.65179 23.1155 8.22501 19.598 8.22501C13.8191 8.22501 9.12901 12.925 9.12901 19.1357C9.12901 25.3465 13.8191 30.1303 19.598 30.1303C22.6968 30.2143 25.712 28.7876 27.4708 26.1857C29.062 23.7518 31.9935 22.4928 34.841 23.0804L38.191 23.9196Z" fill="#7458D3"/>
<path d="M81.2395 19.3869C81.2395 30.1299 72.613 38.6065 61.6416 38.6065C50.67 38.6065 42.0435 30.1299 42.0435 19.3869C42.2947 8.56009 51.2563 -0.0845572 62.0603 0.167229C72.5294 0.335086 80.9882 8.81188 81.2395 19.3869ZM72.1105 19.3869C72.1105 13.0922 67.588 8.39223 61.5578 8.39223C55.5275 8.39223 51.005 13.0922 51.005 19.3869C51.005 25.6814 55.5275 30.2976 61.5578 30.2976C67.588 30.2976 72.1943 25.5976 72.1105 19.3869Z" fill="#7458D3"/>
<path d="M113.902 37.768H86.3479V0.839355H113.735V4.784C113.735 6.96615 111.976 8.64472 109.882 8.64472H95.4769V15.6108H108.71C110.636 15.6108 112.143 17.2054 112.143 19.0519V19.7233C112.143 21.5697 110.72 22.9964 108.877 22.9964H95.3931V29.9625H107.872C111.138 29.9625 113.818 32.6482 113.818 35.9215V37.768H113.902Z" fill="#7458D3"/>
<path d="M154.69 37.768H147.236L128.643 16.3661V32.6482C128.643 35.4179 126.382 37.684 123.618 37.684H119.598V0.839355H127.136L145.729 22.8287V9.31615C145.729 4.61615 149.498 0.839355 154.188 0.839355H154.69V37.768Z" fill="#7458D3"/>
<path d="M190.786 10.7435L188.525 11.1631C185.51 11.8346 182.327 11.0792 179.982 9.06491C178.726 7.97384 177.135 7.38632 175.46 7.38632C172.445 7.38632 170.518 9.06491 170.518 11.1631C170.518 12.6738 171.188 13.7649 173.45 14.2685L181.071 15.9471C187.436 17.3738 191.205 20.8149 191.205 26.6899C191.205 34.5791 184.254 38.6078 176.046 38.6078C167.838 38.6078 160.97 34.6631 159.966 27.4453L163.818 26.6899C166.414 26.1025 169.095 26.9417 170.937 28.872C172.445 30.3827 174.455 31.2221 176.548 31.0543C179.982 31.0543 181.992 29.5436 181.992 27.2775C181.992 25.5989 181.238 24.5918 178.558 24.0042L170.853 22.3257C165.577 21.1507 160.97 18.381 160.97 11.6667C160.97 4.53275 166.917 0.0845381 175.543 0.0845381C183.584 0.00060945 189.363 4.02919 190.786 10.7435Z" fill="#7458D3"/>
<path d="M196.566 37.768V7.80543C196.566 3.94472 199.665 0.839355 203.517 0.839355H205.611V37.768H196.566Z" fill="#7458D3"/>
<path d="M250 19.3869C250 30.1299 241.374 38.6065 230.401 38.6065C219.431 38.6065 210.805 30.1299 210.805 19.3869C211.055 8.56009 220.017 -0.0845572 230.821 0.167229C241.29 0.335086 249.75 8.81188 250 19.3869ZM240.872 19.3869C240.872 13.0922 236.265 8.39223 230.319 8.39223C224.372 8.39223 219.765 13.0083 219.765 19.3869C219.765 25.7654 224.372 30.2976 230.319 30.2976C236.265 30.2976 240.872 25.5976 240.872 19.3869Z" fill="#7458D3"/>
</svg>
